<?xml version="1.0" encoding="UTF-8"?>
<svg width="868px" height="216px" viewBox="0 0 868 216" version="1.1" xmlns="http://www.w3.org/2000/svg" xmlns:xlink="http://www.w3.org/1999/xlink">
    <title>Path + Path + Group + Group + Group + Group Mask</title>
    <defs>
        <rect id="path-1" x="0" y="0.956765103" width="868" height="214" rx="24"></rect>
    </defs>
    <g id="UI" stroke="none" stroke-width="1" fill="none" fill-rule="evenodd">
        <g id="Team-member-Individual" transform="translate(-507.000000, -181.000000)">
            <g id="Path-+-Path-+-Group-+-Group-+-Group-+-Group-Mask" transform="translate(507.000000, 181.043235)">
                <mask id="mask-2" fill="white">
                    <use xlink:href="#path-1"></use>
                </mask>
                <g id="Mask" opacity="0.75"></g>
                <path d="M819.263458,127.103383 C818.978106,127.637044 818.680352,128.161545 818.373106,128.683013 C806.590955,148.647985 779.18296,161.047183 732.960478,154.4847 C706.715633,150.581365 695.538633,164.898692 684.715875,179.563646 C684.530795,179.816759 684.345865,180.069872 684.157724,180.322985 C672.823957,195.701518 661.603026,211.122767 633.546096,205.996573 C603.802307,201.42235 585.445703,177.932166 582.605185,152.853216 C582.570588,152.548267 582.539357,152.240267 582.511036,151.935317 C580.915262,135.675469 585.846945,118.839265 598.428513,106.129021 C606.028337,98.4534754 616.82599,94.3763195 627.971604,94.5043907 C631.327431,94.5651933 634.681828,94.32325 637.991729,93.781667 C638.722257,93.6566464 639.430895,93.5194163 640.120553,93.3638892 C654.319936,90.2076791 660.863179,80.8244145 664.876171,69.3736082 C664.970317,69.1021985 665.064313,68.8307923 665.155247,68.5563495 C674.369678,41.24823 670.10882,2.91927085 720.203321,8.55776723 C765.030569,11.7719152 797.92842,35.9482296 814.065252,63.841846 C814.225226,64.1223902 814.38505,64.4029588 814.541813,64.683503 C818.977064,72.4230679 822.142056,80.7890414 823.922323,89.4788541 C824.022749,89.9667619 824.113684,90.4546906 824.198338,90.9426019 C826.480719,103.896804 824.985217,116.488132 819.263458,127.103383 Z" id="Path" fill-opacity="0.2" fill="#23A68F" fill-rule="nonzero" mask="url(#mask-2)"></path>
                <path d="M368.263458,116.103383 C367.978106,116.637044 367.680352,117.161545 367.373106,117.683013 C355.590955,137.647985 328.18296,150.047183 281.960478,143.4847 C255.715633,139.581365 244.538633,153.898692 233.715875,168.563646 C233.530795,168.816759 233.345865,169.069872 233.157724,169.322985 C221.823957,184.701518 210.603026,200.122767 182.546096,194.996573 C152.802307,190.42235 134.445703,166.932166 131.605185,141.853216 C131.570588,141.548267 131.539357,141.240267 131.511036,140.935317 C129.915262,124.675469 134.846945,107.839265 147.428513,95.1290209 C155.028337,87.4534754 165.82599,83.3763195 176.971604,83.5043907 C180.327431,83.5651933 183.681828,83.32325 186.991729,82.781667 C187.722257,82.6566464 188.430895,82.5194163 189.120553,82.3638892 C203.319936,79.2076791 209.863179,69.8244145 213.876171,58.3736082 C213.970317,58.1021985 214.064313,57.8307923 214.155247,57.5563495 C223.369678,30.24823 219.10882,-8.08072915 269.203321,-2.44223277 C314.030569,0.771915164 346.92842,24.9482296 363.065252,52.841846 C363.225226,53.1223902 363.38505,53.4029588 363.541813,53.683503 C367.977064,61.4230679 371.142056,69.7890414 372.922323,78.4788541 C373.022749,78.9667619 373.113684,79.4546906 373.198338,79.9426019 C375.480719,92.8968038 373.985217,105.488132 368.263458,116.103383 Z" id="Path" fill-opacity="0.2" fill="#23A68F" fill-rule="nonzero" mask="url(#mask-2)" transform="translate(252.720464, 96.500000) rotate(60.000000) translate(-252.720464, -96.500000) "></path>
                <g id="Group" opacity="0.3" mask="url(#mask-2)">
                    <g transform="translate(759.000000, 146.956765)" id="Path">
                        <path d="M3.97702854,25.1785077 C6.78784959,26.5757622 10.2374717,26.1632203 12.5802285,24.1496472 C14.9229853,22.136074 15.6477908,18.9607422 14.3878603,16.2305148 C13.1279298,13.5002873 10.1581244,11.8107791 6.98130142,12.0169585 L6.62620153,15.6087914 L5.28185004,12.3126907 C3.38944953,12.856523 1.80575129,14.0794828 0.878776446,15.7128218 C0.550838404,16.2845333 0.311346856,16.8967454 0.16744539,17.5311967 C-0.535350177,20.5885416 1.01970038,23.7101312 3.97702854,25.1785077 L3.97702854,25.1785077 Z" stroke="none" fill="#57B894" fill-rule="nonzero"></path>
                        <path d="M7.0067481,68 C6.83909211,64.8239881 9.8252511,62.4567329 12.6452628,61.0437417 C15.4652745,59.6307504 18.7139175,58.3108016 20.0143389,55.4143898 C21.8832738,51.251741 18.6857911,46.7373739 16.2439352,42.8895107 C14.4323985,40.0340415 12.9621972,36.9716831 11.8640966,33.766518 C11.4239992,32.481371 11.0407206,31.1489012 11.0679892,29.789262 C11.1072629,27.8312428 11.9877018,26.003161 12.8616008,24.2551177 C15.7728139,18.4318326 18.818947,12.6801267 22,7" stroke="#3F3D56" stroke-width="1" fill="none"></path>
                        <path d="M3.97703277,24.1785109 C6.78785473,25.5757623 10.2374757,25.1632182 12.5802309,23.1496447 C14.9229861,21.1360712 15.6477904,17.9607406 14.3878599,15.2305143 C13.1279295,12.500288 10.1581251,10.8107801 6.98130263,11.0169583 L6.62620628,14.6087946 L5.28185452,11.3126938 C3.38945268,11.8565245 1.80575352,13.0794847 0.878780057,14.712825 C0.550841862,15.2845356 0.311349103,15.8967464 0.167445258,16.5311965 C-0.535350317,19.5885432 1.01970206,22.7101343 3.97703277,24.1785109 Z" stroke="#3F3D56" stroke-width="1" fill="none"></path>
                        <path d="M14.8195357,4.69566575 C15.9384064,2.58579927 18.0535748,1.19269389 20.4307087,1 L20.5213118,4.47855095 L22.0836401,1.06019061 C25.091716,1.53243112 27.4500245,3.89847606 27.9168766,6.91256311 C28.3837287,9.92665016 26.8520278,12.8973435 24.1282402,14.2605234 C21.4044526,15.6237032 18.1134189,15.0666541 15.9879236,12.8826718 C13.8624282,10.6986895 13.3900628,7.38878256 14.8195357,4.69567249 L14.8195357,4.69566575 Z" stroke="none" fill="#57B894" fill-rule="nonzero"></path>
                        <path d="M14.878073,3.69567541 C16.0768563,1.5858064 18.3431049,0.192696834 20.8900332,0 L20.987108,3.47855389 L22.6610312,0.0601906032 C25.8839714,0.532426405 28.4107349,2.89846846 28.9109378,5.9125554 C29.4111406,8.92664234 27.7700355,11.897338 24.8516922,13.2605205 C21.9333488,14.6237031 18.4072397,14.0666564 16.1299212,11.8826751 C13.8526028,9.69869367 13.3464953,6.38878628 14.878073,3.69567541 Z" stroke="#3F3D56" stroke-width="1" fill="none"></path>
                        <path d="M14.9858921,42.1805258 C18.3507056,43.8503269 22.5220785,42.8975564 24.680909,39.9661165 C26.8397395,37.0346767 26.2988329,33.0576976 23.4237454,30.7229057 L22.1381961,33.3442389 L22.0410174,29.8322947 C22.0353243,29.8288024 22.0293474,29.825731 22.0231413,29.8231086 C19.6580758,28.6457201 16.7995529,28.7367923 14.52598,30.0619673 C12.2524071,31.3871423 10.9098176,33.744731 11.0047172,36.2453087 C11.0996167,38.7458865 12.6175619,41.0088701 14.9858921,42.1805258 L14.9858921,42.1805258 Z" stroke="none" fill="#57B894" fill-rule="nonzero"></path>
                        <path d="M14.9818196,42.1803606 C18.3478754,43.8504948 22.5207941,42.8975397 24.6804231,39.9655237 C26.8400521,37.0335077 26.298941,33.0557468 23.4227847,30.7205013 L22.1367576,33.342346 L22.0395467,29.8296997 C22.0338494,29.826208 22.0278692,29.8231361 22.0216604,29.8205118 C19.6559864,28.6454002 16.7982464,28.7379241 14.5255007,30.0632119 C12.2527551,31.3884998 10.9105091,33.7450799 11.004645,36.2447751 C11.0987809,38.7444704 12.6149881,41.0072745 14.9818196,42.1803538 L14.9818196,42.1803606 Z" stroke="#3F3D56" stroke-width="1" fill="none"></path>
                        <path d="M6.00442483,53.2331051 C6.11475736,56.5409634 8.52676014,59.3194524 11.7861915,59.8933691 C15.0456228,60.4672858 18.2615423,58.6797545 19.4950119,55.6085114 C20.7284814,52.5372682 19.6423416,49.0218137 16.8914465,47.1816814 C14.1405514,45.341549 10.4768369,45.6797247 8.10922517,47.992316 L10.5403478,53.0796777 L6.66850994,50.0140322 C6.19249176,51.0183662 5.96473816,52.1223745 6.00442483,53.2331051 Z" stroke="none" fill="#57B894" fill-rule="nonzero"></path>
                        <path d="M6.0044245,52.2331051 C6.11475704,55.5409634 8.52675987,58.3194524 11.7861913,58.8933691 C15.0456227,59.4672858 18.2615423,57.6797545 19.4950119,54.6085114 C20.7284814,51.5372682 19.6423416,48.0218137 16.8914464,46.1816814 C14.1405512,44.341549 10.4768367,44.6797247 8.1092249,46.992316 L10.5403476,52.0796743 L6.66850964,49.0140288 C6.19249292,50.0183645 5.96473941,51.1223735 6.0044245,52.2331051 Z" stroke="#3F3D56" stroke-width="1" fill="none"></path>
                    </g>
                </g>
                <g id="Group" opacity="0.3" mask="url(#mask-2)">
                    <g transform="translate(24.000000, 59.956765)" id="Path">
                        <path d="M55.5156681,56.1223034 C49.519251,59.3160278 42.1600585,58.373075 37.1621783,53.7706221 C32.1642981,49.1681692 30.6180466,41.910268 33.3058979,35.669748 C35.9937491,29.4292281 42.3293327,25.5674951 49.1065539,26.0387623 L49.8641001,34.248666 L52.7320495,26.7147215 C56.7691698,27.9577669 60.1477254,30.7531034 62.1252714,34.4864499 C62.8248715,35.7932203 63.3357891,37.1925615 63.6427851,38.6427354 C65.142078,45.6309538 61.8246347,52.7660148 55.5156681,56.1223034 Z" stroke="none" fill="#FF6584" fill-rule="nonzero"></path>
                        <path d="M49.9847043,155 C50.364725,147.814923 43.5960888,142.459492 37.2040536,139.262888 C30.8120184,136.066285 23.4484178,133.08017 20.5007919,126.527631 C16.2645337,117.11049 23.5121708,106.897657 29.0470517,98.1926539 C33.1532216,91.7327485 36.4856979,84.8047967 38.9747455,77.5537722 C39.972301,74.64639 40.841067,71.6319496 40.7792582,68.5560441 C40.6902375,64.1264262 38.6945733,59.990765 36.713733,56.0361744 C30.1149743,42.862183 23.2103966,29.8501249 16,17" stroke="#3F3D56" stroke-width="1" fill="none"></path>
                        <path d="M54.5156634,54.1223106 C48.5192433,57.3160281 41.1600519,56.3730702 36.1621741,51.7706164 C31.1642963,47.1681627 29.6180472,39.9102643 32.3058988,33.669747 C34.9937505,27.4292297 41.3293331,23.5674974 48.1065544,24.0387619 L48.8640933,32.2486733 L51.7320437,24.7147288 C55.7691705,25.9577686 59.1477317,28.7531064 61.1252769,32.4864571 C61.8248727,33.7932261 62.3357878,35.1925645 62.6427834,36.642735 C64.1420807,43.6309559 60.8246356,50.7660212 54.5156634,54.1223106 L54.5156634,54.1223106 Z" stroke="#3F3D56" stroke-width="1" fill="none"></path>
                        <path d="M32.1267755,11.447236 C29.5693567,6.62468405 24.7346862,3.44044318 19.3012374,3 L19.0941523,10.9509736 L15.5231084,3.13757854 C8.6475062,4.21698541 3.25708679,9.62508813 2.18999632,16.51443 C1.12290586,23.4037718 4.62393639,30.1939281 10.8497367,33.3097677 C17.0755369,36.4256073 24.5978996,35.1523522 29.4561747,30.1603927 C34.3144497,25.1684331 35.3941421,17.6029316 32.1267755,11.4472514 L32.1267755,11.447236 Z" stroke="none" fill="#FF6584" fill-rule="nonzero"></path>
                        <path d="M30.1267793,8.44725896 C27.5693674,3.62469718 22.7346952,0.440446559 17.3012411,0 L17.0941483,7.95098114 L13.5231122,0.137578536 C6.64751011,1.21698368 1.25708957,6.62508449 0.189997072,13.5144255 C-0.87709543,20.4037665 2.62393259,27.1939234 8.84973136,30.309765 C15.0755301,33.4256067 22.5978928,32.1523548 27.4561698,27.1603978 C32.3144468,22.1684407 33.3941426,14.6029403 30.1267793,8.44725896 L30.1267793,8.44725896 Z" stroke="#3F3D56" stroke-width="1" fill="none"></path>
                        <path d="M31.5035751,97.1266267 C24.3232255,100.943905 15.4217168,98.7658069 10.8148766,92.064338 C6.20803646,85.3628691 7.36230494,76.271227 13.497603,70.9337356 L16.2409034,76.9262798 L16.4482779,68.8977387 C16.4604268,68.8897551 16.4731812,68.8827337 16.4864247,68.8767387 C21.5329192,66.1896426 27.6297956,66.4004098 32.4787039,69.429587 C37.3276122,72.4587642 40.1912313,77.8457372 39.9900577,83.5597695 C39.7888841,89.2738018 36.5535082,94.4460221 31.5035751,97.1266497 L31.5035751,97.1266267 Z" stroke="none" fill="#FF6584" fill-rule="nonzero"></path>
                        <path d="M30.5054516,95.1265366 C23.3245324,98.94399 14.422306,96.7658048 9.8150974,90.0640475 C5.20788878,83.3622901 6.36225929,74.2702565 12.4980594,68.9325475 L15.2415838,74.9253411 L15.448967,66.8964582 C15.4611213,66.8884773 15.4738791,66.8814557 15.4871244,66.8754573 C20.5338956,64.1894854 26.6304078,64.4009688 31.4789318,67.4302011 C36.3274558,70.4594333 39.190914,75.8459073 38.9900907,81.5595019 C38.7892675,87.2730966 35.5546921,92.4452253 30.5054516,95.126552 L30.5054516,95.1265366 Z" stroke="#3F3D56" stroke-width="1" fill="none"></path>
                        <path d="M51.9898861,121.532812 C51.7376975,129.093631 46.2245483,135.444463 38.7744195,136.756272 C31.3242907,138.068082 23.9736175,133.982296 21.1542586,126.962312 C18.3348996,119.942327 20.8175049,111.907003 27.1052652,107.700986 C33.3930255,103.494969 41.76723,104.267942 47.1789139,109.553865 L41.6220622,121.18212 L50.4719773,114.174931 C51.5600188,116.470551 52.0805985,118.993999 51.9898861,121.532812 Z" stroke="none" fill="#FF6584" fill-rule="nonzero"></path>
                        <path d="M50.9898868,119.532812 C50.7376982,127.093631 45.2245489,133.444463 37.7744199,134.756272 C30.3242909,136.068082 22.9736176,131.982296 20.1542586,124.962312 C17.3348996,117.942327 19.817505,109.907003 26.1052654,105.700986 C32.3930258,101.494969 40.7672305,102.267942 46.1789145,107.553865 L40.6220627,119.182113 L49.471978,112.174923 C50.5600162,114.470547 51.0805956,116.993997 50.9898868,119.532812 L50.9898868,119.532812 Z" stroke="#3F3D56" stroke-width="1" fill="none"></path>
                    </g>
                </g>
                <g id="Group" opacity="0.3" mask="url(#mask-2)">
                    <g transform="translate(84.000000, 96.956765)" id="Path">
                        <path d="M6.6283806,42.5917289 C11.3130835,44.987021 17.0624542,44.2798053 20.9670486,40.827965 C24.871643,37.3761247 26.0796513,31.9326988 23.9797662,27.2523094 C21.8798811,22.5719199 16.9302045,19.6756209 11.6354989,20.0290718 L11.0436781,26.1865037 L8.80308247,20.5360551 C5.64908002,21.4683355 3.00958125,23.564837 1.4646238,26.3648472 C0.918061042,27.3449293 0.518907919,28.3944397 0.279070114,29.4820745 C-0.892242206,34.7232309 1.69950883,40.0745143 6.6283806,42.5917289 L6.6283806,42.5917289 Z" stroke="none" fill="#57B894" fill-rule="nonzero"></path>
                        <path d="M11.011697,118 C10.721089,112.533092 15.8971047,108.458307 20.7851262,106.026128 C25.6731476,103.593949 31.3041363,101.321885 33.5582007,96.3362591 C36.7976913,89.1710362 31.2553818,81.4004067 27.0228117,74.7770278 C23.8828114,69.8618754 21.3344608,64.5906013 19.4310865,59.073512 C18.6682492,56.8613856 18.0038996,54.5677771 18.0511659,52.2274305 C18.1192465,48.8570617 19.6453349,45.7103908 21.1600925,42.7014458 C26.2061965,32.6777624 31.4861657,22.7772805 37,13" stroke="#3F3D56" stroke-width="1" fill="none"></path>
                        <path d="M7.62837785,41.5917257 C12.3130795,43.9870209 18.0624509,43.2798074 21.9670466,39.8279675 C25.8716422,36.3761275 27.0796516,30.9327004 24.9797666,26.2523099 C22.8798816,21.5719193 17.9302044,18.6756199 12.6354987,19.029072 L12.0436781,25.1865005 L9.8030828,19.5360452 C6.6490807,20.4683271 4.00958256,22.5648297 2.46462551,25.3648407 C1.9180614,26.3449221 1.51890827,27.3944328 1.27907205,28.482068 C0.107755167,33.7232249 2.69950509,39.0745114 7.62837785,41.5917257 L7.62837785,41.5917257 Z" stroke="#3F3D56" stroke-width="1" fill="none"></path>
                        <path d="M25.4634374,9.33545867 C27.46142,5.71852508 31.2385209,3.33033068 35.4834203,3 L35.6452086,8.96324949 L38.4350929,3.10318444 C43.8066513,3.91274794 48.0179073,7.9688267 48.8515669,13.1358301 C49.6852265,18.3028335 46.9500473,23.3954457 42.0861452,25.7323247 C37.2222431,28.0692036 31.3454021,27.1142668 27.5498734,23.3703038 C23.7543447,19.6263409 22.9108264,13.9522207 25.4634444,9.33545867 L25.4634374,9.33545867 Z" stroke="none" fill="#57B894" fill-rule="nonzero"></path>
                        <path d="M26.4634374,6.33545867 C28.461421,2.71852595 32.2385214,0.330331907 36.4834203,0 L36.6452086,5.96324949 L39.4350929,0.103184439 C44.8066513,0.912747939 49.0179073,4.9688267 49.8515669,10.1358301 C50.6852265,15.3028335 47.9500473,20.3954457 43.0861452,22.7323247 C38.2222431,25.0692036 32.3454021,24.1142668 28.5498734,20.3703038 C24.7543447,16.6263409 23.9108264,10.9522207 26.4634444,6.33545867 L26.4634374,6.33545867 Z" stroke="#3F3D56" stroke-width="1" fill="none"></path>
                        <path d="M24.6326391,73.5947664 C30.2438778,76.4581455 37.2001463,74.8243231 40.8002564,69.7974699 C44.4003666,64.7706166 43.4983403,57.9508679 38.7037853,53.9471489 L36.5599752,58.4422149 L36.3979198,52.4199061 C36.3884247,52.4139175 36.3784564,52.4086505 36.3681061,52.4041532 C32.4247565,50.3918156 27.6625673,50.5517922 23.8754093,52.8238212 C20.0882513,55.0958502 17.8514839,59.1347565 18.0076757,63.419123 C18.1638675,67.7034895 20.6892893,71.582419 24.6326391,73.5947564 L24.6326391,73.5947664 Z" stroke="none" fill="#57B894" fill-rule="nonzero"></path>
                        <path d="M26.6326396,72.5947664 C32.2438782,75.4581455 39.2001465,73.8243231 42.8002565,68.7974697 C46.4003666,63.7706162 45.4983403,56.9508672 40.7037854,52.9471481 L38.5599718,57.4422109 L38.3979165,51.4199052 C38.3884221,51.4139154 38.3784538,51.4086483 38.3681028,51.4041523 C34.4247533,49.3918154 29.6625647,49.5517926 25.8754074,51.823822 C22.0882501,54.0958514 19.8514834,58.1347577 20.0076757,62.419124 C20.163868,66.7034903 22.68929,70.5824195 26.6326396,72.5947563 L26.6326396,72.5947664 Z" stroke="#3F3D56" stroke-width="1" fill="none"></path>
                        <path d="M10.0079008,93.3996092 C10.2049234,99.0702234 14.5120716,103.833347 20.332485,104.817204 C26.1528984,105.801061 31.8956119,102.736722 34.0982358,97.471733 C36.3008597,92.2067445 34.3613237,86.1802511 29.4490105,83.0257389 C24.5366973,79.8712266 17.9943498,80.450957 13.766472,84.4153998 L18.1077673,93.1365947 L11.193774,87.8812042 C10.34374,89.6029173 9.93703479,91.4955009 10.0079008,93.3996092 L10.0079008,93.3996092 Z" stroke="none" fill="#57B894" fill-rule="nonzero"></path>
                        <path d="M10.0079014,91.3996139 C10.2049263,97.0702274 14.5120755,101.833349 20.3324885,102.817205 C26.1529015,103.80106 31.8956135,100.73672 34.0982364,95.4717315 C36.3008593,90.2067433 34.3613232,84.1802509 29.4490106,81.0257389 C24.536698,77.871227 17.9943514,78.4509569 13.7664736,82.4153986 L18.10777,91.1365893 L11.1937713,85.8811973 C10.3437368,87.6029143 9.9370327,89.495502 10.0079014,91.3996139 L10.0079014,91.3996139 Z" stroke="#3F3D56" stroke-width="1" fill="none"></path>
                    </g>
                </g>
                <g id="Group" opacity="0.3" mask="url(#mask-2)">
                    <g transform="translate(788.000000, 59.956765)" id="Path">
                        <path d="M9.01574618,155 C8.62454096,147.814917 15.5922516,142.459486 22.1722791,139.262912 C28.7523065,136.066339 36.3324965,133.08019 39.3667952,126.527656 C43.7276427,117.110511 36.266845,106.897683 30.5691567,98.192669 C26.3422433,91.732754 22.9117797,84.8047948 20.3495517,77.5537654 C19.3226576,74.6463875 18.4283401,71.6319426 18.4919673,68.5560598 C18.5836033,64.1264467 20.6379644,59.9908074 22.6770599,56.036192 C29.4698944,42.8621987 36.5775411,29.8501347 44,17" stroke="#3F3D56" stroke-width="1" fill="none"></path>
                        <path d="M51.8838688,2.31841352 L44.8894737,4.34259259 L45.3751607,1.06281611 C44.7593807,1.02267685 44.1344406,1 43.5,1 C34.3873036,1 27,5.25329778 27,10.5 C27,15.7467022 34.3873036,20 43.5,20 C52.6126964,20 60,15.7467022 60,10.5 C60,7.01603685 56.7406977,3.9718463 51.8838688,2.31841352 Z" stroke="none" fill="#FF6584" fill-rule="nonzero"></path>
                        <path d="M51.8838688,1.31841352 L44.8894737,3.34259259 L45.3751607,0.0628161111 C44.7593807,0.0226768519 44.1344406,0 43.5,0 C34.3873036,0 27,4.25329778 27,9.5 C27,14.7467022 34.3873036,19 43.5,19 C52.6126964,19 60,14.7467022 60,9.5 C60,6.01603685 56.7406977,2.9718463 51.8838688,1.31841352 Z" stroke="#3F3D56" stroke-width="1" fill="none"></path>
                        <path d="M30.8838688,121.318414 L23.8894737,123.342593 L24.3751607,120.062816 C23.7593807,120.022677 23.1344406,120 22.5,120 C13.3873036,120 6,124.253298 6,129.5 C6,134.746702 13.3873036,139 22.5,139 C31.6126964,139 39,134.746702 39,129.5 C39,126.016037 35.7406977,122.971846 30.8838688,121.318414 Z" stroke="none" fill="#FF6584" fill-rule="nonzero"></path>
                        <path d="M30.8838688,120.318414 L23.8894737,122.342593 L24.3751607,119.062816 C23.7593807,119.022677 23.1344406,119 22.5,119 C13.3873036,119 6,123.253298 6,128.5 C6,133.746702 13.3873036,138 22.5,138 C31.6126964,138 39,133.746702 39,128.5 C39,125.016037 35.7406977,121.971846 30.8838688,120.318414 Z" stroke="#3F3D56" stroke-width="1" fill="none"></path>
                        <path d="M55.8838688,96.3184135 L48.8894737,98.3425926 L49.3751607,95.0628161 C48.7593807,95.0226769 48.1344406,95 47.5,95 C38.3873036,95 31,99.2532978 31,104.5 C31,109.746702 38.3873036,114 47.5,114 C56.6126964,114 64,109.746702 64,104.5 C64,101.016037 60.7406977,97.9718463 55.8838688,96.3184135 Z" stroke="none" fill="#FF6584" fill-rule="nonzero"></path>
                        <path d="M55.8838688,95.3184135 L48.8894737,97.3425926 L49.3751607,94.0628161 C48.7593807,94.0226769 48.1344406,94 47.5,94 C38.3873036,94 31,98.2532978 31,103.5 C31,108.746702 38.3873036,113 47.5,113 C56.6126964,113 64,108.746702 64,103.5 C64,100.016037 60.7406977,96.9718463 55.8838688,95.3184135 Z" stroke="#3F3D56" stroke-width="1" fill="none"></path>
                        <path d="M26.7629581,33.0006535 L19.5364788,31.5833066 L21.456824,28.8463457 C20.9192744,28.5243511 20.3655706,28.213877 19.7930483,27.9194773 C11.5696751,23.6909085 2.98134867,24.1046103 0.61048489,28.8435021 C-1.76037889,33.5823939 2.98401643,40.8519586 11.2073861,45.0805238 C19.4307558,49.309089 28.0190893,48.8953907 30.3899531,44.1565025 C31.964276,41.0097382 30.3986629,36.7477734 26.7629581,33.0006535 Z" stroke="none" fill="#FF6584" fill-rule="nonzero"></path>
                        <path d="M26.7629604,32.0006534 L19.5364802,30.5833065 L21.4568257,27.8463422 C20.919276,27.5243512 20.3655721,27.2138736 19.7930497,26.9194774 C11.5696754,22.6909089 2.9813443,23.1046107 0.610483719,27.8434986 C-1.76037686,32.5823865 2.98401558,39.8519544 11.2073864,44.0805229 C19.4307572,48.3090914 28.0190883,47.8953896 30.3899524,43.1564981 C31.9642755,40.0097375 30.3986657,35.747773 26.7629604,32.0006534 Z" stroke="#3F3D56" stroke-width="1" fill="none"></path>
                        <path d="M42.7629581,69.0006535 L35.5364788,67.5833066 L37.456824,64.8463457 C36.9192744,64.5243511 36.3655706,64.213877 35.7930483,63.9194773 C27.5696751,59.6909085 18.9813487,60.1046103 16.6104849,64.8435021 C14.2396211,69.5823939 18.9840164,76.8519586 27.2073861,81.0805238 C35.4307558,85.309089 44.0190893,84.8953907 46.3899531,80.1565025 C47.964276,77.0097382 46.3986629,72.7477734 42.7629581,69.0006535 Z" stroke="none" fill="#FF6584" fill-rule="nonzero"></path>
                        <path d="M42.7629604,69.0006534 L35.5364802,67.5833065 L37.4568257,64.8463422 C36.919276,64.5243512 36.3655721,64.2138736 35.7930497,63.9194774 C27.5696754,59.6909089 18.9813443,60.1046107 16.6104837,64.8434986 C14.2396231,69.5823865 18.9840156,76.8519544 27.2073864,81.0805229 C35.4307572,85.3090914 44.0190883,84.8953896 46.3899524,80.1564981 C47.9642755,77.0097375 46.3986657,72.747773 42.7629604,69.0006534 Z" stroke="#3F3D56" stroke-width="1" fill="none"></path>
                    </g>
                </g>
            </g>
        </g>
    </g>
</svg>