<?xml version="1.0" encoding="UTF-8"?>
<svg width="868px" height="216px" viewBox="0 0 868 216" version="1.1" xmlns="http://www.w3.org/2000/svg" xmlns:xlink="http://www.w3.org/1999/xlink">
    <title>Path + Path + Group + Group + Group + Group + Group + Group Mask</title>
    <defs>
        <rect id="path-1" x="0" y="0.956765103" width="868" height="214"></rect>
    </defs>
    <g id="UI" stroke="none" stroke-width="1" fill="none" fill-rule="evenodd">
        <g id="Team-member-Individual" transform="translate(-507.000000, -181.000000)">
            <g id="Path-+-Path-+-Group-+-Group-+-Group-+-Group-+-Group-+-Group-Mask" transform="translate(507.000000, 181.043235)">
                <mask id="mask-2" fill="white">
                    <use xlink:href="#path-1"></use>
                </mask>
                <use id="Mask" fill="#23A68F" opacity="0.75" xlink:href="#path-1"></use>
                <path d="M819.263458,127.103383 C818.978106,127.637044 818.680352,128.161545 818.373106,128.683013 C806.590955,148.647985 779.18296,161.047183 732.960478,154.4847 C706.715633,150.581365 695.538633,164.898692 684.715875,179.563646 C684.530795,179.816759 684.345865,180.069872 684.157724,180.322985 C672.823957,195.701518 661.603026,211.122767 633.546096,205.996573 C603.802307,201.42235 585.445703,177.932166 582.605185,152.853216 C582.570588,152.548267 582.539357,152.240267 582.511036,151.935317 C580.915262,135.675469 585.846945,118.839265 598.428513,106.129021 C606.028337,98.4534754 616.82599,94.3763195 627.971604,94.5043907 C631.327431,94.5651933 634.681828,94.32325 637.991729,93.781667 C638.722257,93.6566464 639.430895,93.5194163 640.120553,93.3638892 C654.319936,90.2076791 660.863179,80.8244145 664.876171,69.3736082 C664.970317,69.1021985 665.064313,68.8307923 665.155247,68.5563495 C674.369678,41.24823 670.10882,2.91927085 720.203321,8.55776723 C765.030569,11.7719152 797.92842,35.9482296 814.065252,63.841846 C814.225226,64.1223902 814.38505,64.4029588 814.541813,64.683503 C818.977064,72.4230679 822.142056,80.7890414 823.922323,89.4788541 C824.022749,89.9667619 824.113684,90.4546906 824.198338,90.9426019 C826.480719,103.896804 824.985217,116.488132 819.263458,127.103383 Z" id="Path" fill-opacity="0.5" fill="#23A68F" fill-rule="nonzero" mask="url(#mask-2)"></path>
                <path d="M368.263458,116.103383 C367.978106,116.637044 367.680352,117.161545 367.373106,117.683013 C355.590955,137.647985 328.18296,150.047183 281.960478,143.4847 C255.715633,139.581365 244.538633,153.898692 233.715875,168.563646 C233.530795,168.816759 233.345865,169.069872 233.157724,169.322985 C221.823957,184.701518 210.603026,200.122767 182.546096,194.996573 C152.802307,190.42235 134.445703,166.932166 131.605185,141.853216 C131.570588,141.548267 131.539357,141.240267 131.511036,140.935317 C129.915262,124.675469 134.846945,107.839265 147.428513,95.1290209 C155.028337,87.4534754 165.82599,83.3763195 176.971604,83.5043907 C180.327431,83.5651933 183.681828,83.32325 186.991729,82.781667 C187.722257,82.6566464 188.430895,82.5194163 189.120553,82.3638892 C203.319936,79.2076791 209.863179,69.8244145 213.876171,58.3736082 C213.970317,58.1021985 214.064313,57.8307923 214.155247,57.5563495 C223.369678,30.24823 219.10882,-8.08072915 269.203321,-2.44223277 C314.030569,0.771915164 346.92842,24.9482296 363.065252,52.841846 C363.225226,53.1223902 363.38505,53.4029588 363.541813,53.683503 C367.977064,61.4230679 371.142056,69.7890414 372.922323,78.4788541 C373.022749,78.9667619 373.113684,79.4546906 373.198338,79.9426019 C375.480719,92.8968038 373.985217,105.488132 368.263458,116.103383 Z" id="Path" fill-opacity="0.5" fill="#23A68F" fill-rule="nonzero" mask="url(#mask-2)" transform="translate(252.720464, 96.500000) rotate(60.000000) translate(-252.720464, -96.500000) "></path>
                <g id="Group" opacity="0.3" mask="url(#mask-2)">
                    <g transform="translate(723.000000, 114.956765)" id="Path">
                        <path d="M5.56783996,36.7677616 C9.50298942,38.8636433 14.3324604,38.2448305 17.6123199,35.2244707 C20.8921794,32.204111 21.9069071,27.4411133 20.1430044,23.3457722 C18.3791017,19.250431 14.2213742,16.7161687 9.77382198,17.0254378 L9.27668214,22.4131871 L7.39459005,17.469036 C4.74522934,18.2847845 2.52805181,20.1192241 1.23028702,22.5692327 C0.771173766,23.4268 0.435885598,24.3451181 0.234423547,25.2967951 C-0.749490248,29.8828124 1.42758054,34.5651969 5.56783996,36.7677616 L5.56783996,36.7677616 Z" stroke="none" fill="#57B894" fill-rule="nonzero"></path>
                        <path d="M10.0098972,100 C9.76400176,95.3661466 14.1437016,91.9122825 18.2797188,89.8507051 C22.4157359,87.7891277 27.1804123,85.8633007 29.087697,81.6373884 C31.8288015,75.5640155 27.1391603,68.97748 23.5577717,63.3633844 C20.9008511,59.1972081 18.7445559,54.7291769 17.1340083,50.0527885 C16.4885322,48.177738 15.9263902,46.2336427 15.9663841,44.2499069 C16.0239856,41.3931248 17.315296,38.7259235 18.5970145,36.1754995 C22.8667937,27.6792311 27.3344556,19.287398 32,11" stroke="#3F3D56" stroke-width="1" fill="none"></path>
                        <path d="M6.56784587,35.7677663 C10.5029966,37.8636434 15.3324659,37.2448273 18.6123232,34.224467 C21.8921805,31.2041068 22.9069065,26.4411109 21.1430039,22.3457714 C19.3791012,18.250432 15.2213752,15.7161702 10.7738237,16.0254375 L10.2766888,21.4131918 L8.39459632,16.4690408 C5.74523375,17.2847868 3.52805493,19.1192271 2.23029208,21.5692375 C1.77117861,22.4268035 1.43588874,23.3451196 1.23442336,24.2967948 C0.250509556,28.8828148 2.42758288,33.5652014 6.56784587,35.7677663 Z" stroke="#3F3D56" stroke-width="1" fill="none"></path>
                        <path d="M21.2293036,7.54349863 C22.9076097,4.37869891 26.0803622,2.28904084 29.646063,2 L29.7819676,7.21782642 L32.1254601,2.09028592 C36.6375741,2.79864668 40.1750368,6.34771409 40.8753149,10.8688447 C41.575593,15.3899752 39.2780417,19.8460153 35.1923603,21.890785 C31.1066789,23.9355548 26.1701284,23.0999812 22.9818854,19.8240077 C19.7936424,16.5480342 19.0850943,11.5831738 21.2293036,7.54350874 L21.2293036,7.54349863 Z" stroke="none" fill="#57B894" fill-rule="nonzero"></path>
                        <path d="M22.2293022,5.54351311 C23.9075988,2.37870961 27.0803469,0.289045251 30.6460465,0 L30.7819512,5.21783083 L33.1254437,0.0902859048 C37.63756,0.798639608 41.1750289,4.3477027 41.8753129,8.8688331 C42.5755969,13.3899635 40.2780497,17.846007 36.192369,19.8907808 C32.1066883,21.9355547 27.1701356,21.0999846 23.9818897,17.8240126 C20.7936439,14.5480405 20.0850934,9.58317942 22.2293022,5.54351311 Z" stroke="#3F3D56" stroke-width="1" fill="none"></path>
                        <path d="M21.580249,62.7707886 C26.2909878,65.2754904 32.1309099,63.8463345 35.1532726,59.4491748 C38.1756353,55.052015 37.4183661,49.0865464 33.3932436,45.5843586 L31.5934745,49.5163584 L31.4574244,44.248442 C31.449454,44.2432036 31.4410864,44.2385965 31.4323978,44.2346629 C28.1213061,42.4685801 24.1193741,42.6051884 20.936372,44.592951 C17.75337,46.5807135 15.8737446,50.1170964 16.006604,53.8679631 C16.1394634,57.6188297 18.2645866,61.0133051 21.580249,62.7707886 L21.580249,62.7707886 Z" stroke="none" fill="#57B894" fill-rule="nonzero"></path>
                        <path d="M21.5745474,61.7705408 C26.2870256,64.2757422 32.1291117,62.8463095 35.1525923,58.4482855 C38.176073,54.0502615 37.4185173,48.0836202 33.3918985,44.580752 L31.5914606,48.513519 L31.4553654,43.2445495 C31.4473892,43.239312 31.4390169,43.2347041 31.4303246,43.2307676 C28.118381,41.4681003 24.1175449,41.6068862 20.935701,43.5948179 C17.7538572,45.5827497 15.8747127,49.1176198 16.006503,52.8671627 C16.1382932,56.6167056 18.2609833,60.0109118 21.5745474,61.7705307 L21.5745474,61.7705408 Z" stroke="#3F3D56" stroke-width="1" fill="none"></path>
                        <path d="M8.00663724,78.8496577 C8.17213604,83.811445 11.7901402,87.9791786 16.6792872,88.8400536 C21.5684342,89.7009287 26.3923135,87.0196318 28.2425178,82.412767 C30.0927221,77.8059023 28.4635124,72.5327206 24.3371697,69.772522 C20.210827,67.0123235 14.7152553,67.5195871 11.1638378,70.988474 L14.8105217,78.6195165 L9.00276491,74.0210483 C8.28873764,75.5275493 7.94710724,77.1835617 8.00663724,78.8496577 Z" stroke="none" fill="#57B894" fill-rule="nonzero"></path>
                        <path d="M9.00663676,76.8496577 C9.17213556,81.811445 12.7901398,85.9791786 17.6792869,86.8400536 C22.5684341,87.7009287 27.3923134,85.0196318 29.2425178,80.412767 C31.0927221,75.8059023 29.4635124,70.5327206 25.3371696,67.772522 C21.2108268,65.0123235 15.715255,65.5195871 12.1638373,68.988474 L15.8105213,76.6195114 L10.0027645,72.0210432 C9.28873939,73.5275468 8.94710911,75.1835603 9.00663676,76.8496577 Z" stroke="#3F3D56" stroke-width="1" fill="none"></path>
                    </g>
                </g>
                <g id="Group" opacity="0.3" mask="url(#mask-2)">
                    <g transform="translate(24.000000, 59.956765)" id="Path">
                        <path d="M55.5156681,56.1223034 C49.519251,59.3160278 42.1600585,58.373075 37.1621783,53.7706221 C32.1642981,49.1681692 30.6180466,41.910268 33.3058979,35.669748 C35.9937491,29.4292281 42.3293327,25.5674951 49.1065539,26.0387623 L49.8641001,34.248666 L52.7320495,26.7147215 C56.7691698,27.9577669 60.1477254,30.7531034 62.1252714,34.4864499 C62.8248715,35.7932203 63.3357891,37.1925615 63.6427851,38.6427354 C65.142078,45.6309538 61.8246347,52.7660148 55.5156681,56.1223034 Z" stroke="none" fill="#FF6584" fill-rule="nonzero"></path>
                        <path d="M49.9847043,155 C50.364725,147.814923 43.5960888,142.459492 37.2040536,139.262888 C30.8120184,136.066285 23.4484178,133.08017 20.5007919,126.527631 C16.2645337,117.11049 23.5121708,106.897657 29.0470517,98.1926539 C33.1532216,91.7327485 36.4856979,84.8047967 38.9747455,77.5537722 C39.972301,74.64639 40.841067,71.6319496 40.7792582,68.5560441 C40.6902375,64.1264262 38.6945733,59.990765 36.713733,56.0361744 C30.1149743,42.862183 23.2103966,29.8501249 16,17" stroke="#3F3D56" stroke-width="1" fill="none"></path>
                        <path d="M54.5156634,54.1223106 C48.5192433,57.3160281 41.1600519,56.3730702 36.1621741,51.7706164 C31.1642963,47.1681627 29.6180472,39.9102643 32.3058988,33.669747 C34.9937505,27.4292297 41.3293331,23.5674974 48.1065544,24.0387619 L48.8640933,32.2486733 L51.7320437,24.7147288 C55.7691705,25.9577686 59.1477317,28.7531064 61.1252769,32.4864571 C61.8248727,33.7932261 62.3357878,35.1925645 62.6427834,36.642735 C64.1420807,43.6309559 60.8246356,50.7660212 54.5156634,54.1223106 L54.5156634,54.1223106 Z" stroke="#3F3D56" stroke-width="1" fill="none"></path>
                        <path d="M32.1267755,11.447236 C29.5693567,6.62468405 24.7346862,3.44044318 19.3012374,3 L19.0941523,10.9509736 L15.5231084,3.13757854 C8.6475062,4.21698541 3.25708679,9.62508813 2.18999632,16.51443 C1.12290586,23.4037718 4.62393639,30.1939281 10.8497367,33.3097677 C17.0755369,36.4256073 24.5978996,35.1523522 29.4561747,30.1603927 C34.3144497,25.1684331 35.3941421,17.6029316 32.1267755,11.4472514 L32.1267755,11.447236 Z" stroke="none" fill="#FF6584" fill-rule="nonzero"></path>
                        <path d="M30.1267793,8.44725896 C27.5693674,3.62469718 22.7346952,0.440446559 17.3012411,0 L17.0941483,7.95098114 L13.5231122,0.137578536 C6.64751011,1.21698368 1.25708957,6.62508449 0.189997072,13.5144255 C-0.87709543,20.4037665 2.62393259,27.1939234 8.84973136,30.309765 C15.0755301,33.4256067 22.5978928,32.1523548 27.4561698,27.1603978 C32.3144468,22.1684407 33.3941426,14.6029403 30.1267793,8.44725896 L30.1267793,8.44725896 Z" stroke="#3F3D56" stroke-width="1" fill="none"></path>
                        <path d="M31.5035751,97.1266267 C24.3232255,100.943905 15.4217168,98.7658069 10.8148766,92.064338 C6.20803646,85.3628691 7.36230494,76.271227 13.497603,70.9337356 L16.2409034,76.9262798 L16.4482779,68.8977387 C16.4604268,68.8897551 16.4731812,68.8827337 16.4864247,68.8767387 C21.5329192,66.1896426 27.6297956,66.4004098 32.4787039,69.429587 C37.3276122,72.4587642 40.1912313,77.8457372 39.9900577,83.5597695 C39.7888841,89.2738018 36.5535082,94.4460221 31.5035751,97.1266497 L31.5035751,97.1266267 Z" stroke="none" fill="#FF6584" fill-rule="nonzero"></path>
                        <path d="M30.5054516,95.1265366 C23.3245324,98.94399 14.422306,96.7658048 9.8150974,90.0640475 C5.20788878,83.3622901 6.36225929,74.2702565 12.4980594,68.9325475 L15.2415838,74.9253411 L15.448967,66.8964582 C15.4611213,66.8884773 15.4738791,66.8814557 15.4871244,66.8754573 C20.5338956,64.1894854 26.6304078,64.4009688 31.4789318,67.4302011 C36.3274558,70.4594333 39.190914,75.8459073 38.9900907,81.5595019 C38.7892675,87.2730966 35.5546921,92.4452253 30.5054516,95.126552 L30.5054516,95.1265366 Z" stroke="#3F3D56" stroke-width="1" fill="none"></path>
                        <path d="M51.9898861,121.532812 C51.7376975,129.093631 46.2245483,135.444463 38.7744195,136.756272 C31.3242907,138.068082 23.9736175,133.982296 21.1542586,126.962312 C18.3348996,119.942327 20.8175049,111.907003 27.1052652,107.700986 C33.3930255,103.494969 41.76723,104.267942 47.1789139,109.553865 L41.6220622,121.18212 L50.4719773,114.174931 C51.5600188,116.470551 52.0805985,118.993999 51.9898861,121.532812 Z" stroke="none" fill="#FF6584" fill-rule="nonzero"></path>
                        <path d="M50.9898868,119.532812 C50.7376982,127.093631 45.2245489,133.444463 37.7744199,134.756272 C30.3242909,136.068082 22.9736176,131.982296 20.1542586,124.962312 C17.3348996,117.942327 19.817505,109.907003 26.1052654,105.700986 C32.3930258,101.494969 40.7672305,102.267942 46.1789145,107.553865 L40.6220627,119.182113 L49.471978,112.174923 C50.5600162,114.470547 51.0805956,116.993997 50.9898868,119.532812 L50.9898868,119.532812 Z" stroke="#3F3D56" stroke-width="1" fill="none"></path>
                    </g>
                </g>
                <g id="Group" opacity="0.3" mask="url(#mask-2)">
                    <g transform="translate(701.500000, 189.956765) scale(-1, 1) translate(-701.500000, -189.956765) translate(691.000000, 164.956765)" id="Path">
                        <path d="M18.3486463,18.4132198 C16.4747659,19.4112587 14.1750183,19.1165859 12.6131807,17.6783194 C11.0513432,16.2400529 10.5681396,13.9719587 11.4080931,12.0217963 C12.2480466,10.0716338 14.2279165,8.86484222 16.3457981,9.01211322 L16.5825313,11.5777081 L17.4787655,9.22335047 C18.7403656,9.61180216 19.7961642,10.4853448 20.4141473,11.6520156 C20.6327723,12.0603813 20.7924341,12.4976755 20.8883703,12.9508548 C21.3568994,15.1346731 20.3201983,17.3643796 18.3486463,18.4132198 L18.3486463,18.4132198 Z" stroke="none" fill="#FF6584" fill-rule="nonzero"></path>
                        <path d="M15.9950514,50 C16.1179993,47.65704 13.9281464,45.9107039 11.860135,44.8683332 C9.79212361,43.8259624 7.40978222,42.8522295 6.45613857,40.7155319 C5.08558442,37.6447249 7.4304082,34.3144535 9.22110497,31.4758654 C10.5495717,29.3693745 11.6277258,27.1102598 12.4330059,24.7457953 C12.7557444,23.7977359 13.0368158,22.8147662 13.0168188,21.8117535 C12.988018,20.3673129 12.3423619,19.0187277 11.7015019,17.7291873 C9.56661099,13.4333205 7.33277704,9.19025811 5,5" stroke="#3F3D56" stroke-width="1" fill="none"></path>
                        <path d="M17.3486448,17.4132221 C15.4747635,18.4112588 13.1750162,18.1165844 11.6131794,16.6783176 C10.0513426,15.2400508 9.56813974,12.9719576 10.4080934,11.0217959 C11.248047,9.07163427 13.2279166,7.86484294 15.3457982,8.01211309 L15.5825291,10.5777104 L16.4787637,8.22335275 C17.7403658,8.61180269 18.7961662,9.48534576 19.414149,10.6520179 C19.6327727,11.0603832 19.7924337,11.4976764 19.8883698,11.9508547 C20.3569002,14.1346737 19.3201986,16.3643816 17.3486448,17.4132221 L17.3486448,17.4132221 Z" stroke="#3F3D56" stroke-width="1" fill="none"></path>
                        <path d="M10.4146174,3.63976125 C9.61542397,2.13271377 8.10458943,1.13763849 6.40663668,1 L6.34192258,3.48467925 L5.22597137,1.04299329 C3.07734569,1.38030794 1.39283962,3.07034004 1.05937385,5.22325936 C0.72590808,7.37617869 1.81998012,9.49810252 3.76554271,10.4718024 C5.71110529,11.4455023 8.06184363,11.0476101 9.58005459,9.48762271 C11.0982655,7.92763535 11.4356694,5.56341612 10.4146174,3.63976607 L10.4146174,3.63976125 Z" stroke="none" fill="#FF6584" fill-rule="nonzero"></path>
                        <path d="M9.41461853,2.63976842 C8.61542731,1.13271787 7.10459225,0.13763955 5.40663786,0 L5.34192136,2.48468161 L4.22597255,0.0429932925 C2.07734691,0.380307401 0.392840492,2.0703389 0.059374085,4.22325796 C-0.274092322,6.37617703 0.819978933,8.49810105 2.76554105,9.47180158 C4.71110316,10.4455021 7.06184151,10.0476109 8.58005306,8.48762431 C10.0982646,6.92763772 10.4356696,4.56341884 9.41461853,2.63976842 L9.41461853,2.63976842 Z" stroke="#3F3D56" stroke-width="1" fill="none"></path>
                        <path d="M10.3448672,31.4145708 C8.10100798,32.6074702 5.3192865,31.9268147 3.87964895,29.8326056 C2.44001139,27.7383966 2.8007203,24.8972584 4.71800095,23.2292924 L5.57528232,25.1019624 L5.64008685,22.5930434 C5.64388336,22.5905485 5.64786913,22.5883543 5.65200772,22.5864808 C7.22903725,21.7467633 9.13431113,21.8126281 10.649595,22.7592459 C12.1648788,23.7058638 13.0597598,25.3892929 12.996893,27.174928 C12.9340263,28.960563 11.9229713,30.5768819 10.3448672,31.414578 L10.3448672,31.4145708 Z" stroke="none" fill="#FF6584" fill-rule="nonzero"></path>
                        <path d="M10.3454536,30.4145427 C8.10141637,31.6074969 5.31947063,30.926814 3.87971794,28.8325148 C2.43996524,26.7382157 2.80070603,23.8969552 4.71814355,22.2289211 L5.57549493,24.1016691 L5.64030217,21.5926432 C5.6441004,21.5901491 5.6480872,21.5879549 5.65222638,21.5860804 C7.22934238,20.7467142 9.13450243,20.8128028 10.6496662,21.7594378 C12.1648299,22.7060729 13.0596606,24.389346 12.9969033,26.1748444 C12.9341461,27.9603427 11.9233413,29.5766329 10.3454536,30.4145475 L10.3454536,30.4145427 Z" stroke="#3F3D56" stroke-width="1" fill="none"></path>
                        <path d="M16.9968394,39.1665037 C16.9180305,41.5292595 15.1951713,43.5138946 12.8670061,43.9238351 C10.5388408,44.3337756 8.24175547,43.0569675 7.3607058,40.8632224 C6.47965614,38.6694773 7.25547029,36.1584384 9.22039538,34.8440581 C11.1853205,33.5296779 13.8022594,33.7712319 15.4934106,35.4230829 L13.7568944,39.0569126 L16.5224929,36.8671658 C16.8625059,37.5845473 17.025187,38.3731246 16.9968394,39.1665037 Z" stroke="none" fill="#FF6584" fill-rule="nonzero"></path>
                        <path d="M15.9968396,38.1665037 C15.9180307,40.5292595 14.1951715,42.5138946 11.8670062,42.9238351 C9.53884092,43.3337756 7.2417555,42.0569675 6.36070581,39.8632224 C5.47965613,37.6694773 6.2554703,35.1584384 8.22039543,33.8440581 C10.1853206,32.5296779 12.8022595,32.7712319 14.4934108,34.4230829 L12.7568946,38.0569102 L15.5224931,35.8671634 C15.8625051,36.5845461 16.0251861,37.3731239 15.9968396,38.1665037 L15.9968396,38.1665037 Z" stroke="#3F3D56" stroke-width="1" fill="none"></path>
                    </g>
                </g>
                <g id="Group" opacity="0.3" mask="url(#mask-2)">
                    <g transform="translate(99.000000, 14.956765)" id="Path">
                        <path d="M72.33084,73.15057 C64.5290875,77.3049774 54.9542702,76.0783812 48.4516831,70.0914952 C41.949096,64.1046092 39.9373162,54.6635072 43.4343961,46.5458182 C46.9314761,38.4281292 55.1745075,33.4047741 63.99214,34.0178 L64.97776,44.69727 L68.70916,34.89709 C73.9617322,36.5140476 78.3574662,40.1502306 80.93039,45.00658 C81.840618,46.7064313 82.5053571,48.5266991 82.90478,50.41309 C84.8554635,59.5033877 80.5392409,68.7846987 72.33084,73.15057 L72.33084,73.15057 Z" stroke="none" fill="#FF6584" fill-rule="nonzero"></path>
                        <path d="M64.91478,199.6824 C65.40929,190.41131 56.60146,183.50106 48.28369,179.3764 C39.96592,175.25174 30.38384,171.39871 26.54822,162.9438 C21.0357,150.79262 30.46684,137.61474 37.66922,126.38245 C43.0124619,118.047058 47.3489167,109.107734 50.58784,99.75154 C51.88593,96.00007 53.01643,92.11046 52.936,88.14154 C52.82016,82.42589 50.22326,77.08954 47.64565,71.98683 C39.0588633,54.98811 30.0741267,38.1983267 20.69144,21.61748" stroke="#3F3D56" stroke-width="1" fill="none"></path>
                        <path d="M71.0956,70.53999 C63.2938465,74.6943882 53.7190344,73.4677855 47.2164529,67.4808984 C40.7138714,61.4940113 38.7020953,52.052913 42.1991745,43.9352274 C45.6962537,35.8175417 53.9392807,30.7941876 62.75691,31.40721 L63.74252,42.08669 L67.47392,32.28651 C72.7264986,33.9034603 77.1222382,37.539645 79.69516,42.396 C80.6053821,44.0958494 81.2701176,45.9161135 81.66954,47.8025 C83.6202284,56.8928009 79.3040051,66.1741175 71.0956,70.53999 L71.0956,70.53999 Z" stroke="#3F3D56" stroke-width="1" fill="none"></path>
                        <path d="M41.33527,14.95897 C38.0089046,8.69743776 31.7205797,4.56306511 24.65344,3.9912 L24.38409,14.31463 L19.73933,4.16983 C10.7964205,5.57131639 3.78524803,12.5931193 2.39731237,21.5381419 C1.00937671,30.4831645 5.56307227,39.2994059 13.660802,43.3449673 C21.7585317,47.3905288 31.5426651,45.7373527 37.8616918,39.2558641 C44.1807186,32.7743754 45.5850451,22.9514368 41.33527,14.95899 L41.33527,14.95897 Z" stroke="none" fill="#FF6584" fill-rule="nonzero"></path>
                        <path d="M39.68833,11.4782 C36.3619736,5.21665489 30.0736465,1.0822695 23.0065,0.5104 L22.73714,10.83384 L18.09239,0.68903 C9.14948068,2.09051418 2.13830674,9.11231478 0.750368434,18.0573364 C-0.637569873,27.0023581 3.91612242,35.8186005 12.0138502,39.8641647 C20.111578,43.9097289 29.8957114,42.2565569 36.2147406,35.7750713 C42.5337698,29.2935858 43.9381009,19.4706485 39.68833,11.4782 L39.68833,11.4782 Z" stroke="#3F3D56" stroke-width="1" fill="none"></path>
                        <path d="M41.31551,126.07475 C31.9736756,131.040838 20.3925654,128.207241 14.3989384,119.488966 C8.40531133,110.77069 9.9070467,98.9429191 17.88924,91.99911 L21.45835,99.79511 L21.72815,89.35038 C21.743956,89.3399937 21.7605499,89.3308592 21.77778,89.32306 C28.3434096,85.8272825 36.2756152,86.1014801 42.5841796,90.042288 C48.892744,93.9830959 52.618392,100.991278 52.3566596,108.424948 C52.0949272,115.858618 47.8856132,122.587418 41.31551,126.07478 L41.31551,126.07475 Z" stroke="none" fill="#FF6584" fill-rule="nonzero"></path>
                        <path d="M39.81302,122.52563 C30.4711814,127.491739 18.8900509,124.658147 12.8964172,115.939859 C6.9027835,107.221571 8.40453316,95.3937832 16.38675,88.44998 L19.95587,96.24598 L20.22566,85.8012 C20.2414719,85.7908177 20.2580688,85.7816834 20.2753,85.77388 C26.8407717,82.2797105 34.7718779,82.5548284 41.0794449,86.4955439 C47.3870119,90.4362593 51.1121567,97.4435006 50.8509007,104.876292 C50.5896447,112.309083 46.3817042,119.037483 39.81302,122.52561 L39.81302,122.52563 Z" stroke="#3F3D56" stroke-width="1" fill="none"></path>
                        <path d="M67.61284,157.25941 C67.2849452,167.089579 60.116767,175.346588 50.4301344,177.052132 C40.7435019,178.757676 31.1861812,173.445558 27.5204601,164.318553 C23.854739,155.191548 27.0826141,144.744453 35.257939,139.276016 C43.4332639,133.80758 54.3213767,134.812558 61.35763,141.68503 L54.13263,156.80346 L65.63926,147.69309 C67.053928,150.677732 67.7307839,153.958582 67.61284,157.25941 L67.61284,157.25941 Z" stroke="none" fill="#FF6584" fill-rule="nonzero"></path>
                        <path d="M66.3776,154.64883 C66.0497052,164.478999 58.881527,172.736008 49.1948944,174.441552 C39.5082619,176.147096 29.9509412,170.834978 26.2852201,161.707973 C22.619499,152.580968 25.8473741,142.133873 34.022699,136.665436 C42.1980239,131.197 53.0861367,132.201978 60.12239,139.07445 L52.89739,154.19287 L64.40402,145.0825 C65.8186836,148.067147 66.4955393,151.348 66.3776,154.64883 L66.3776,154.64883 Z" stroke="#3F3D56" stroke-width="1" fill="none"></path>
                    </g>
                </g>
                <g id="Group" opacity="0.3" mask="url(#mask-2)">
                    <g transform="translate(194.000000, 96.956765)" id="Path">
                        <path d="M6.6283806,42.5917289 C11.3130835,44.987021 17.0624542,44.2798053 20.9670486,40.827965 C24.871643,37.3761247 26.0796513,31.9326988 23.9797662,27.2523094 C21.8798811,22.5719199 16.9302045,19.6756209 11.6354989,20.0290718 L11.0436781,26.1865037 L8.80308247,20.5360551 C5.64908002,21.4683355 3.00958125,23.564837 1.4646238,26.3648472 C0.918061042,27.3449293 0.518907919,28.3944397 0.279070114,29.4820745 C-0.892242206,34.7232309 1.69950883,40.0745143 6.6283806,42.5917289 L6.6283806,42.5917289 Z" stroke="none" fill="#57B894" fill-rule="nonzero"></path>
                        <path d="M11.011697,118 C10.721089,112.533092 15.8971047,108.458307 20.7851262,106.026128 C25.6731476,103.593949 31.3041363,101.321885 33.5582007,96.3362591 C36.7976913,89.1710362 31.2553818,81.4004067 27.0228117,74.7770278 C23.8828114,69.8618754 21.3344608,64.5906013 19.4310865,59.073512 C18.6682492,56.8613856 18.0038996,54.5677771 18.0511659,52.2274305 C18.1192465,48.8570617 19.6453349,45.7103908 21.1600925,42.7014458 C26.2061965,32.6777624 31.4861657,22.7772805 37,13" stroke="#3F3D56" stroke-width="1" fill="none"></path>
                        <path d="M7.62837785,41.5917257 C12.3130795,43.9870209 18.0624509,43.2798074 21.9670466,39.8279675 C25.8716422,36.3761275 27.0796516,30.9327004 24.9797666,26.2523099 C22.8798816,21.5719193 17.9302044,18.6756199 12.6354987,19.029072 L12.0436781,25.1865005 L9.8030828,19.5360452 C6.6490807,20.4683271 4.00958256,22.5648297 2.46462551,25.3648407 C1.9180614,26.3449221 1.51890827,27.3944328 1.27907205,28.482068 C0.107755167,33.7232249 2.69950509,39.0745114 7.62837785,41.5917257 L7.62837785,41.5917257 Z" stroke="#3F3D56" stroke-width="1" fill="none"></path>
                        <path d="M25.4634374,9.33545867 C27.46142,5.71852508 31.2385209,3.33033068 35.4834203,3 L35.6452086,8.96324949 L38.4350929,3.10318444 C43.8066513,3.91274794 48.0179073,7.9688267 48.8515669,13.1358301 C49.6852265,18.3028335 46.9500473,23.3954457 42.0861452,25.7323247 C37.2222431,28.0692036 31.3454021,27.1142668 27.5498734,23.3703038 C23.7543447,19.6263409 22.9108264,13.9522207 25.4634444,9.33545867 L25.4634374,9.33545867 Z" stroke="none" fill="#57B894" fill-rule="nonzero"></path>
                        <path d="M26.4634374,6.33545867 C28.461421,2.71852595 32.2385214,0.330331907 36.4834203,0 L36.6452086,5.96324949 L39.4350929,0.103184439 C44.8066513,0.912747939 49.0179073,4.9688267 49.8515669,10.1358301 C50.6852265,15.3028335 47.9500473,20.3954457 43.0861452,22.7323247 C38.2222431,25.0692036 32.3454021,24.1142668 28.5498734,20.3703038 C24.7543447,16.6263409 23.9108264,10.9522207 26.4634444,6.33545867 L26.4634374,6.33545867 Z" stroke="#3F3D56" stroke-width="1" fill="none"></path>
                        <path d="M24.6326391,73.5947664 C30.2438778,76.4581455 37.2001463,74.8243231 40.8002564,69.7974699 C44.4003666,64.7706166 43.4983403,57.9508679 38.7037853,53.9471489 L36.5599752,58.4422149 L36.3979198,52.4199061 C36.3884247,52.4139175 36.3784564,52.4086505 36.3681061,52.4041532 C32.4247565,50.3918156 27.6625673,50.5517922 23.8754093,52.8238212 C20.0882513,55.0958502 17.8514839,59.1347565 18.0076757,63.419123 C18.1638675,67.7034895 20.6892893,71.582419 24.6326391,73.5947564 L24.6326391,73.5947664 Z" stroke="none" fill="#57B894" fill-rule="nonzero"></path>
                        <path d="M26.6326396,72.5947664 C32.2438782,75.4581455 39.2001465,73.8243231 42.8002565,68.7974697 C46.4003666,63.7706162 45.4983403,56.9508672 40.7037854,52.9471481 L38.5599718,57.4422109 L38.3979165,51.4199052 C38.3884221,51.4139154 38.3784538,51.4086483 38.3681028,51.4041523 C34.4247533,49.3918154 29.6625647,49.5517926 25.8754074,51.823822 C22.0882501,54.0958514 19.8514834,58.1347577 20.0076757,62.419124 C20.163868,66.7034903 22.68929,70.5824195 26.6326396,72.5947563 L26.6326396,72.5947664 Z" stroke="#3F3D56" stroke-width="1" fill="none"></path>
                        <path d="M10.0079008,93.3996092 C10.2049234,99.0702234 14.5120716,103.833347 20.332485,104.817204 C26.1528984,105.801061 31.8956119,102.736722 34.0982358,97.471733 C36.3008597,92.2067445 34.3613237,86.1802511 29.4490105,83.0257389 C24.5366973,79.8712266 17.9943498,80.450957 13.766472,84.4153998 L18.1077673,93.1365947 L11.193774,87.8812042 C10.34374,89.6029173 9.93703479,91.4955009 10.0079008,93.3996092 L10.0079008,93.3996092 Z" stroke="none" fill="#57B894" fill-rule="nonzero"></path>
                        <path d="M10.0079014,91.3996139 C10.2049263,97.0702274 14.5120755,101.833349 20.3324885,102.817205 C26.1529015,103.80106 31.8956135,100.73672 34.0982364,95.4717315 C36.3008593,90.2067433 34.3613232,84.1802509 29.4490106,81.0257389 C24.536698,77.871227 17.9943514,78.4509569 13.7664736,82.4153986 L18.10777,91.1365893 L11.1937713,85.8811973 C10.3437368,87.6029143 9.9370327,89.495502 10.0079014,91.3996139 L10.0079014,91.3996139 Z" stroke="#3F3D56" stroke-width="1" fill="none"></path>
                    </g>
                </g>
                <g id="Group" opacity="0.3" mask="url(#mask-2)">
                    <g transform="translate(776.000000, 28.956765)" id="Path">
                        <path d="M11.0184455,186 C10.5601765,177.40914 18.7223519,171.005907 26.430384,167.183917 C34.1384162,163.361927 43.0180673,159.791532 46.5725315,151.95698 C51.6809529,140.69735 42.9411612,128.486361 36.2667264,118.078191 C31.3151992,110.35438 27.2966563,102.07095 24.2951892,93.4012413 C23.092256,89.9250285 22.0446269,86.320801 22.1191617,82.643115 C22.2265068,77.3468384 24.633044,72.4020524 27.0216987,67.6737079 C34.9790191,51.9221941 43.3051195,36.3642914 52,21" stroke="#3F3D56" stroke-width="1" fill="none"></path>
                        <path d="M61.4082086,2.59597426 L53.1421053,5.0462963 L53.7160991,1.07604056 C52.9883591,1.02745093 52.2497935,1 51.5,1 C40.7304497,1 32,6.14872889 32,12.5 C32,18.8512711 40.7304497,24 51.5,24 C62.2695503,24 71,18.8512711 71,12.5 C71,8.28257093 67.1480973,4.59749815 61.4082086,2.59597426 Z" stroke="none" fill="#FF6584" fill-rule="nonzero"></path>
                        <path d="M61.4082086,1.59597426 L53.1421053,4.0462963 L53.7160991,0.0760405556 C52.9883591,0.0274509259 52.2497935,0 51.5,0 C40.7304497,0 32,5.14872889 32,11.5 C32,17.8512711 40.7304497,23 51.5,23 C62.2695503,23 71,17.8512711 71,11.5 C71,7.28257093 67.1480973,3.59749815 61.4082086,1.59597426 Z" stroke="#3F3D56" stroke-width="1" fill="none"></path>
                        <path d="M36.4082086,145.595974 L28.1421053,148.046296 L28.7160991,144.076041 C27.9883591,144.027451 27.2497935,144 26.5,144 C15.7304497,144 7,149.148729 7,155.5 C7,161.851271 15.7304497,167 26.5,167 C37.2695503,167 46,161.851271 46,155.5 C46,151.282571 42.1480973,147.597498 36.4082086,145.595974 Z" stroke="none" fill="#FF6584" fill-rule="nonzero"></path>
                        <path d="M36.4082086,144.595974 L28.1421053,147.046296 L28.7160991,143.076041 C27.9883591,143.027451 27.2497935,143 26.5,143 C15.7304497,143 7,148.148729 7,154.5 C7,160.851271 15.7304497,166 26.5,166 C37.2695503,166 46,160.851271 46,154.5 C46,150.282571 42.1480973,146.597498 36.4082086,144.595974 Z" stroke="#3F3D56" stroke-width="1" fill="none"></path>
                        <path d="M66.4082086,115.595974 L58.1421053,118.046296 L58.7160991,114.076041 C57.9883591,114.027451 57.2497935,114 56.5,114 C45.7304497,114 37,119.148729 37,125.5 C37,131.851271 45.7304497,137 56.5,137 C67.2695503,137 76,131.851271 76,125.5 C76,121.282571 72.1480973,117.597498 66.4082086,115.595974 Z" stroke="none" fill="#FF6584" fill-rule="nonzero"></path>
                        <path d="M66.4082086,114.595974 L58.1421053,117.046296 L58.7160991,113.076041 C57.9883591,113.027451 57.2497935,113 56.5,113 C45.7304497,113 37,118.148729 37,124.5 C37,130.851271 45.7304497,136 56.5,136 C67.2695503,136 76,130.851271 76,124.5 C76,120.282571 72.1480973,116.597498 66.4082086,114.595974 Z" stroke="#3F3D56" stroke-width="1" fill="none"></path>
                        <path d="M31.9428855,39.3920715 L23.3177328,37.7282295 L25.6097577,34.5152754 C24.9681662,34.1372817 24.3072939,33.7728121 23.6239609,33.4272124 C13.8089671,28.4632404 3.55838389,28.9488904 0.728643256,34.5119372 C-2.10109738,40.0749841 3.561568,48.608821 13.3765576,53.5727888 C23.1915473,58.5367567 33.4421388,58.0511109 36.2718795,52.4880682 C38.1509101,48.7940404 36.282275,43.7908644 31.9428855,39.3920715 Z" stroke="none" fill="#FF6584" fill-rule="nonzero"></path>
                        <path d="M31.9428883,38.3920713 L23.3177344,36.7282294 L25.6097597,33.5152713 C24.9681681,33.1372819 24.3072957,32.7728081 23.6239626,32.4272126 C13.8089674,27.4632409 3.55837868,27.9488909 0.728641858,33.5119332 C-2.10109496,39.0749755 3.56156698,47.6088161 13.3765579,52.5727878 C23.1915489,57.5367595 33.4421376,57.0511095 36.2718787,51.488063 C38.1509095,47.7940397 36.2822784,42.7908639 31.9428883,38.3920713 Z" stroke="#3F3D56" stroke-width="1" fill="none"></path>
                        <path d="M50.9428855,83.3920715 L42.3177328,81.7282295 L44.6097577,78.5152754 C43.9681662,78.1372817 43.3072939,77.7728121 42.6239609,77.4272124 C32.8089671,72.4632404 22.5583839,72.9488904 19.7286433,78.5119372 C16.8989026,84.0749841 22.561568,92.608821 32.3765576,97.5727888 C42.1915473,102.536757 52.4421388,102.051111 55.2718795,96.4880682 C57.1509101,92.7940404 55.282275,87.7908644 50.9428855,83.3920715 Z" stroke="none" fill="#FF6584" fill-rule="nonzero"></path>
                        <path d="M50.9428883,82.3920713 L42.3177344,80.7282294 L44.6097597,77.5152713 C43.9681681,77.1372819 43.3072957,76.7728081 42.6239626,76.4272126 C32.8089674,71.4632409 22.5583787,71.9488909 19.7286419,77.5119332 C16.898905,83.0749755 22.561567,91.6088161 32.3765579,96.5727878 C42.1915489,101.536759 52.4421376,101.05111 55.2718787,95.488063 C57.1509095,91.7940397 55.2822784,86.7908639 50.9428883,82.3920713 Z" stroke="#3F3D56" stroke-width="1" fill="none"></path>
                    </g>
                </g>
            </g>
        </g>
    </g>
</svg>