<?xml version="1.0" encoding="UTF-8"?>
<svg width="400px" height="223px" viewBox="0 0 400 223" version="1.1" xmlns="http://www.w3.org/2000/svg" xmlns:xlink="http://www.w3.org/1999/xlink">
    <title>undraw_working_remotely_jh40 (1)</title>
    <g id="UI" stroke="none" stroke-width="1" fill="none" fill-rule="evenodd">
        <g id="Home" transform="translate(-976.000000, -32.000000)" fill-rule="nonzero">
            <g id="Welcome" transform="translate(464.000000, 32.000000)">
                <g id="undraw_working_remotely_jh40-(1)" transform="translate(512.000000, 0.000000)">
                    <path d="M400.000248,145.512743 C400.021597,157.080703 396.862243,168.432075 390.867133,178.326599 C390.867133,190.42732 385.223776,201.395564 376.06993,209.38931 C373.778538,211.387308 371.311684,213.174809 368.699301,214.730125 C368.594406,214.796536 368.486014,214.859451 368.377622,214.922367 C368.181818,215.037712 367.986014,215.153056 367.786713,215.271897 L367.601399,215.380251 L367.601399,215.380251 C366.765734,215.852116 365.912587,216.306505 365.041958,216.732931 C357.019108,220.67659 348.191996,222.710336 339.251748,222.675392 L75.9335664,222.675392 C73.8356643,222.675392 71.7564103,222.59105 69.6958042,222.423276 C62.3729276,221.84672 55.1771235,220.180923 48.3461538,217.480925 C47.0128205,216.9543 45.7051282,216.388062 44.4230769,215.78221 C43.8123543,215.495596 43.2074592,215.200825 42.6083916,214.8979 C42.2342657,214.709154 41.8601399,214.513417 41.4895105,214.31768 C39.2406649,213.122246 37.0622622,211.79885 34.965035,210.354013 C33.0483551,209.042694 31.2041601,207.62852 29.4405594,206.117712 C17.541958,195.911442 10.1818182,181.786944 10.1818182,166.201411 C3.5124431,155.935111 -0.025237503,143.950979 -0.000134094282,131.709812 C-0.000134094282,97.0574295 27.7062937,68.965721 61.8881119,68.965721 C62.9370629,68.965721 63.986014,68.9971787 65.034965,69.0531034 C65.1853147,69.0531034 65.3321678,69.0531034 65.4825175,69.0740752 C71.2447552,59.2557837 78.9475524,50.2344201 88.2097902,42.2931034 C113.468531,20.65721 150.384615,7.01855799 191.506993,7.01855799 C226.059441,7.01855799 257.643357,16.6481034 281.835664,32.5586991 C291.003002,27.3782706 301.357431,24.6626004 311.888112,24.6768025 C346.062937,24.6768025 373.776224,52.768511 373.776224,87.4208934 C373.771136,89.6134623 373.654435,91.804352 373.426573,93.9850627 C390.144187,105.815136 400.057414,125.037557 400.000248,145.512743 L400.000248,145.512743 Z" id="Path" fill="#0A876E" opacity="0.1"></path>
                    <path d="M318.423077,95.760674 L318.423077,92.0102194 C324.475209,89.5538544 327.939287,83.1565523 326.687478,76.7479001 C325.435668,70.3392478 319.818649,65.7145434 313.286713,65.7145434 C306.754777,65.7145434 301.137758,70.3392478 299.885949,76.7479001 C298.63414,83.1565523 302.098218,89.5538544 308.15035,92.0102194 L308.15035,95.760674 C304.729457,96.7112771 301.638611,98.5900663 299.22028,101.188871 C296.65912,97.3474746 292.802427,94.5539489 288.353147,93.3174608 L288.353147,89.563511 C294.405278,87.107146 297.869357,80.7098438 296.617547,74.3011916 C295.365738,67.8925394 289.748719,63.2678349 283.216783,63.2678349 C276.684847,63.2678349 271.067828,67.8925394 269.816019,74.3011916 C268.56421,80.7098438 272.028288,87.107146 278.08042,89.563511 L278.08042,93.3139655 C275.038622,94.1581316 272.251487,95.7378841 269.965035,97.9137774 C267.413676,94.4901297 263.796309,92.0113479 259.681818,90.8672571 L259.681818,87.1168025 C265.73395,84.6604375 269.198028,78.2631354 267.946219,71.8544831 C266.69441,65.4458309 261.077391,60.8211265 254.545455,60.8211265 C248.013518,60.8211265 242.396499,65.4458309 241.14469,71.8544831 C239.892881,78.2631354 243.356959,84.6604375 249.409091,87.1168025 L249.409091,90.8672571 C245.909169,91.8423511 242.757178,93.7886406 240.318182,96.4807053 C238.113948,90.8310049 233.376132,86.5494029 227.531469,84.9252508 L227.531469,81.1747962 C233.5836,78.7184312 237.047678,72.3211291 235.795869,65.9124769 C234.54406,59.5038246 228.927041,54.8791202 222.395105,54.8791202 C215.863169,54.8791202 210.24615,59.5038246 208.994341,65.9124769 C207.742531,72.3211291 211.20661,78.7184312 217.258741,81.1747962 L217.258741,84.9252508 C209.588615,87.060068 204.027605,93.6990146 203.272727,101.622288 C201.508033,100.397713 199.549308,99.4795452 197.479021,98.906442 L197.479021,95.1559875 C203.531153,92.6996225 206.995231,86.3023203 205.743422,79.8936681 C204.491612,73.4850158 198.874593,68.8603114 192.342657,68.8603114 C185.810721,68.8603114 180.193702,73.4850158 178.941893,79.8936681 C177.690084,86.3023203 181.154162,92.6996225 187.206294,95.1559875 L187.206294,98.906442 C181.924278,100.376948 177.517619,104.024596 175.087413,108.937947 C173.467368,107.897278 171.699091,107.107719 169.842657,106.596097 L169.842657,102.845643 C175.894789,100.389278 179.358867,93.9919755 178.107058,87.5833233 C176.855249,81.174671 171.23823,76.5499666 164.706294,76.5499666 C158.174358,76.5499666 152.557339,81.174671 151.305529,87.5833233 C150.05372,93.9919755 153.517798,100.389278 159.56993,102.845643 L159.56993,106.596097 C157.818192,107.079315 156.14494,107.811478 154.601399,108.770172 C152.155182,103.938609 147.788513,100.358692 142.56993,98.906442 L142.56993,95.1559875 C148.622062,92.6996225 152.08614,86.3023203 150.834331,79.8936681 C149.582521,73.4850158 143.965503,68.8603114 137.433566,68.8603114 C130.90163,68.8603114 125.284611,73.4850158 124.032802,79.8936681 C122.780993,86.3023203 126.245071,92.6996225 132.297203,95.1559875 L132.297203,98.906442 C126.670695,100.471031 122.057855,104.502499 119.755245,109.867696 C117.799881,108.367208 115.574171,107.256517 113.199301,106.596097 L113.199301,102.845643 C119.251432,100.389278 122.71551,93.9919755 121.463701,87.5833233 C120.211892,81.174671 114.594873,76.5499666 108.062937,76.5499666 C101.531001,76.5499666 95.913982,81.174671 94.6621728,87.5833233 C93.4103637,93.9919755 96.8744418,100.389278 102.926573,102.845643 L102.926573,106.596097 C94.5980842,108.903623 88.8321678,116.481698 88.8321678,125.121176 L88.8321678,211.804561 L127.272727,211.804561 L127.272727,204.114906 L145.454545,204.114906 L145.454545,211.804561 L183.916084,211.804561 L183.916084,204.114906 L211.538462,204.114906 L211.538462,190.133715 L235.314685,190.133715 L235.314685,196.075721 L263.986014,196.075721 L263.986014,198.522429 L294.055944,198.522429 L294.055944,200.969138 L332.517483,200.969138 L332.517483,114.285752 C332.517483,105.646274 326.751566,98.0682 318.423077,95.760674 L318.423077,95.760674 Z" id="Path" fill="#0A876E" opacity="0.1"></path>
                    <path d="M171.601399,59.0705329 L203.56993,59.0705329 C219.361118,59.0705329 234.505857,65.3398178 245.67224,76.5016955 C256.838624,87.6635732 263.111888,102.802722 263.111888,118.588464 L263.111888,199.231975 L112.062937,199.231975 L112.062937,118.588464 C112.062937,102.803327 118.335721,87.6647086 129.501349,76.5029313 C140.666976,65.3411541 155.810817,59.0705329 171.601399,59.0705329 Z" id="Path" fill="#2F2E41"></path>
                    <path d="M175.097902,62.3141693 L200.073427,62.3141693 C215.864614,62.3141693 231.009353,68.5834541 242.175737,79.7453319 C253.34212,90.9072096 259.615385,106.046358 259.615385,121.8321 L259.615385,195.984843 L115.559441,195.984843 L115.559441,121.8321 C115.559441,88.9612547 142.215718,62.3141693 175.097902,62.3141693 Z" id="Path" fill="#000000" opacity="0.2"></path>
                    <path d="M365.034965,210.62315 L365.034965,216.72594 C357.012115,220.669599 348.185003,222.703346 339.244755,222.667947 L75.9335664,222.667947 C73.8356643,222.667947 71.7564103,222.58406 69.6958042,222.416285 C62.3729276,221.83973 55.1771235,220.173932 48.3461538,217.473934 C47.0128205,216.947309 45.7051282,216.381071 44.4230769,215.775219 C43.8123543,215.488605 43.2074592,215.193835 42.6083916,214.890909 C42.2342657,214.702163 41.8601399,214.506426 41.4895105,214.31069 C39.2408329,213.117523 37.0624336,211.796463 34.965035,210.354013 L34.965035,193.77931 C34.965035,188.200455 39.4891506,183.6779 45.0699301,183.6779 L335.70979,183.6779 C338.154603,183.682387 340.514886,184.572776 342.353147,186.184028 L361.583916,203.031364 C363.775353,204.946247 365.034965,207.713535 365.034965,210.62315 Z" id="Path" fill="#2F2E41"></path>
                    <path d="M168.765734,78.9273197 C161.141026,79.4306426 153.545455,80.2462121 145.979021,81.3740282 C143.828671,81.6955956 141.646853,82.052116 139.685315,83.002837 C138.161029,83.800805 136.755821,84.8078763 135.51049,85.9948119 C129.893806,91.0250484 125.371329,97.1556506 122.223776,104.006082 C120.276224,108.252868 118.877622,112.744326 117.041958,117.026066 C110.506993,132.317994 98.6538462,144.824169 91.7552448,159.955313 C90.2622378,163.230408 89.0034965,166.648809 88.5034965,170.210517 C87.986014,173.894561 88.5734266,178.193777 91.6013986,180.346881 C93,181.33605 94.6993007,181.745 96.3636364,182.09453 C117.315197,186.732739 138.510481,190.192691 159.84965,192.458088 C157.538462,190.228088 156.765734,186.771238 157.06993,183.576536 C157.374126,180.381834 158.629371,177.361897 159.867133,174.401379 C147.79021,171.737962 135.74359,168.941724 123.727273,166.012665 C121.933566,165.575752 119.77972,164.754357 119.559441,162.922821 C119.447552,161.989577 119.909091,161.091285 120.363636,160.26989 C125.488488,150.993142 131.63381,142.317627 138.685315,134.404687 C138.685315,144.212492 138.199301,155.289091 138.199301,165.100392 L251.520979,165.100392 C250.158142,159.502475 249.356977,153.78268 249.129371,148.025862 C248.601399,129.235141 254.93007,110.587727 253.286713,91.8354545 C253.132867,90.1052821 252.895105,88.3226803 251.98951,86.840674 C250.426573,84.282116 247.307692,83.2230408 244.440559,82.3492163 C233.447552,79.0077116 222.223776,75.6277586 210.734266,75.889906 C207.318182,75.9702978 203.916084,76.3687618 200.520979,76.770721 C190.174825,77.9905799 179.160839,78.2387461 168.765734,78.9273197 Z" id="Path" fill="#0A876E"></path>
                    <path d="M115.692308,191.654169 L123.944056,218.054154 C124.052365,218.397368 124.370757,218.630878 124.730769,218.630878 L160.13986,218.630878 L151.748252,187.872257 L116.412587,190.588103 C116.163272,190.608704 115.936767,190.741256 115.796748,190.948494 C115.656729,191.155732 115.618316,191.415279 115.692308,191.654169 Z" id="Path" fill="#656478"></path>
                    <path d="M176.223776,90.280047 C174.685315,91.1643574 172.891608,91.4824295 171.143357,91.7865204 L159.86014,93.7438871 C157.664336,94.1248746 155.353147,94.5582915 153.660839,96.0088401 C150.199301,98.9693574 150.947552,104.418527 151.996503,108.850564 L154.094406,117.742602 C155.674825,124.425611 157.29021,131.189013 160.531469,137.242868 C166.192308,147.809154 176.576923,155.418417 187.996503,159.084984 C192.076923,160.395721 196.388112,161.248574 200.646853,160.780204 C208.98951,159.864436 216.125874,153.918934 220.524476,146.77105 C224.923077,139.623166 227.017483,131.33232 228.937063,123.160313 C230.77972,115.337837 232.531469,107.403511 232.412587,99.364326 C232.377622,96.8616928 232.125874,94.24721 230.79021,92.1255643 C227.863636,87.4663323 221.230769,87.1168025 215.793706,87.9766458 C214.947552,88.1129624 214.06993,88.2597649 213.255245,88.0046082 C210.807692,87.2426332 210.751748,83.883652 209.702797,81.5522884 C207.72028,77.1552038 201.839161,76.3757524 197.031469,76.7742163 C192.223776,77.1726803 184.737762,77.686489 180.548951,80.409326 C176.520979,83.0133229 180.947552,87.55721 176.223776,90.280047 Z" id="Path" fill="#FBBEBE"></path>
                    <path d="M176.223776,90.280047 C174.685315,91.1643574 172.891608,91.4824295 171.143357,91.7865204 L159.86014,93.7438871 C157.664336,94.1248746 155.353147,94.5582915 153.660839,96.0088401 C150.199301,98.9693574 150.947552,104.418527 151.996503,108.850564 L154.094406,117.742602 C155.674825,124.425611 157.29021,131.189013 160.531469,137.242868 C166.192308,147.809154 176.576923,155.418417 187.996503,159.084984 C192.076923,160.395721 196.388112,161.248574 200.646853,160.780204 C208.98951,159.864436 216.125874,153.918934 220.524476,146.77105 C224.923077,139.623166 227.017483,131.33232 228.937063,123.160313 C230.77972,115.337837 232.531469,107.403511 232.412587,99.364326 C232.377622,96.8616928 232.125874,94.24721 230.79021,92.1255643 C227.863636,87.4663323 221.230769,87.1168025 215.793706,87.9766458 C214.947552,88.1129624 214.06993,88.2597649 213.255245,88.0046082 C210.807692,87.2426332 210.751748,83.883652 209.702797,81.5522884 C207.72028,77.1552038 201.839161,76.3757524 197.031469,76.7742163 C192.223776,77.1726803 184.737762,77.686489 180.548951,80.409326 C176.520979,83.0133229 180.947552,87.55721 176.223776,90.280047 Z" id="Path" fill="#000000" opacity="0.1"></path>
                    <path d="M166.884615,100.297571 C168.590909,103.876755 169.870629,107.672649 171.933566,111.059592 C173.573427,113.750972 175.674825,116.124279 177.765734,118.483605 C183.181818,124.607367 188.667832,130.780063 195.370629,135.44279 C198.146358,121.187839 204.851921,107.991985 214.730769,97.3440439 C217.618881,94.2437147 221.234266,91.1888245 225.472028,91.3041693 C228.101399,91.3775705 230.527972,92.6813166 232.716783,94.1318652 C235.164336,95.7501881 237.479021,97.627163 239.237762,99.9585266 C242.017483,103.670533 243.216783,108.371708 243.433566,113.002978 C243.65035,117.634248 242.93007,122.255031 242.216783,126.833871 L238.545455,150.500533 C238.332168,151.87069 238.034965,153.384154 236.916084,154.205549 C236.280622,154.607942 235.564401,154.865692 234.818182,154.960533 C221.472028,157.557539 207.716783,155.872806 194.118881,155.739984 C179.083916,155.596677 163.632867,157.309373 149.391608,152.527806 C148.646853,152.276144 147.874126,151.986034 147.370629,151.388339 C147.039902,150.937506 146.802189,150.425412 146.671329,149.881865 C143.353147,139.14431 146.013986,127.606332 147.982517,116.543715 C149.541155,107.776922 150.650991,98.9362903 151.307692,90.056348 C151.367133,89.2559248 160.164336,91.0245455 161.146853,91.5907837 C163.821678,93.1741536 165.597902,97.5992006 166.884615,100.297571 Z" id="Path" fill="#0A876E"></path>
                    <g id="Group" opacity="0.2" transform="translate(37.412587, 93.324451)">
                        <path d="M20.9335664,94.2996395 C20.9335664,94.4604232 20.9160839,94.6177116 20.8986014,94.7715047 C19.5652681,94.2448798 18.2575758,93.6786416 16.9755245,93.07279 C16.2906406,92.9827534 15.6536708,92.6723531 15.1608392,92.1884796 C14.7867133,91.9997335 14.4125874,91.8039969 14.041958,91.6082602 C14.1258817,91.4325499 14.2204634,91.2621281 14.3251748,91.0979467 C15.0454545,89.9584796 16.1398601,89.2454389 17.3461538,89.2838871 C18.5524476,89.3223354 19.5979021,90.1017868 20.2447552,91.2797022 C20.7394669,92.2070001 20.9772757,93.249619 20.9335664,94.2996395 Z" id="Path" fill="#3F3D56"></path>
                        <path d="M21.1223776,88.3156897 C21.0985402,89.3641045 20.7956022,90.3872234 20.2447552,91.2797022 C19.5244755,92.415674 18.4300699,93.1287147 17.2237762,93.0902665 L16.9755245,93.07279 C16.2906406,92.9827534 15.6536708,92.6723531 15.1608392,92.1884796 C14.8266338,91.8711749 14.5446106,91.5031376 14.3251748,91.0979467 C13.344023,89.2059313 13.4155059,86.940439 14.513986,85.1139969 C15.2342657,83.9745298 16.3286713,83.261489 17.534965,83.2999373 C18.7412587,83.3383856 19.7867133,84.117837 20.4335664,85.2957524 C20.9282781,86.2230503 21.1660869,87.2656691 21.1223776,88.3156897 L21.1223776,88.3156897 Z" id="Path" fill="#3F3D56"></path>
                        <ellipse id="Oval" fill="#3F3D56" transform="translate(17.571672, 82.222677) rotate(-88.190000) translate(-17.571672, -82.222677) " cx="17.5716723" cy="82.222677" rx="4.89691391" ry="3.74125745"></ellipse>
                        <ellipse id="Oval" fill="#3F3D56" transform="translate(17.762439, 76.238674) rotate(-88.190000) translate(-17.762439, -76.238674) " cx="17.7624391" cy="76.2386735" rx="4.89691391" ry="3.74125745"></ellipse>
                        <ellipse id="Oval" fill="#3F3D56" transform="translate(17.949711, 70.254560) rotate(-88.190000) translate(-17.949711, -70.254560) " cx="17.949711" cy="70.2545596" rx="4.89691391" ry="3.74125745"></ellipse>
                        <path d="M5.24475524,28.8536834 C4.75236317,28.1872193 4.30833751,27.4863679 3.91608392,26.7565047 L13.7972028,25.4527586 L3.14685315,25.2010972 C1.22852947,20.6524718 1.26773101,15.515049 3.25524476,10.9962069 L17.2832168,18.8396552 L4.43356643,8.7592163 C7.96695584,3.04633354 14.3988953,-0.21231897 21.0969608,0.316939664 C27.7950264,0.846198298 33.634961,5.07453306 36.2266328,11.2713976 C38.8183047,17.4682621 37.7267067,24.5935249 33.3986014,29.7310031 C34.1637226,30.7681401 34.8143609,31.884977 35.3391608,33.0620219 L22.3776224,39.2976332 L36.1293706,35.1626959 C37.8894334,40.9638505 36.6006005,47.2611779 32.7027972,51.9051724 C38.2536102,59.4326087 37.0824279,69.9610953 30.0129784,76.0856295 C22.9435288,82.2101637 12.3518844,81.872263 5.68746884,75.3095833 C-0.976946739,68.7469035 -1.47419467,58.1651897 4.54545455,51.0068809 C-0.364027122,44.3461676 -0.0750523766,35.1917157 5.24475524,28.8536834 L5.24475524,28.8536834 Z" id="Path" fill="#0A876E"></path>
                        <path d="M36.8881973,40.9369279 C36.7648737,44.9578407 35.2863306,48.8192025 32.6923077,51.8946865 C38.2508327,59.4192166 37.0865333,69.9515361 30.0185967,76.0812315 C22.9506601,82.2109269 12.3558436,81.8767461 5.68853293,75.3138147 C-0.978777701,68.7508833 -1.47654482,58.166139 4.54545455,51.0068809 C2.22727273,47.8820846 36.951049,38.9271317 36.8881973,40.9369279 Z" id="Path" fill="#000000" opacity="0.1"></path>
                    </g>
                    <ellipse id="Oval" fill="#0A876E" opacity="0.1" cx="23.7832168" cy="49.3466144" rx="7.56293706" ry="7.56032915"></ellipse>
                    <ellipse id="Oval" fill="#0A876E" opacity="0.1" cx="55.3041958" cy="7.56032915" rx="7.56293706" ry="7.56032915"></ellipse>
                    <ellipse id="Oval" fill="#0A876E" opacity="0.1" cx="52.7412587" cy="36.26721" rx="12.6748252" ry="12.6704545"></ellipse>
                    <ellipse id="Oval" fill="#FBBEBE" cx="189.86014" cy="64.8377743" rx="29.3706294" ry="29.3605016"></ellipse>
                    <path d="M177.93007,7.22478056 C170.094406,8.21744514 161.636364,9.52818182 156.097902,15.1556113 C153,18.3013793 151.185315,22.4957367 149.692308,26.6481505 C147.377622,33.1144514 145.653846,39.9302821 146.195804,46.7915517 C146.678322,52.9292947 148.951049,59.2068495 147.111888,65.0859404 C146.265734,67.7913009 144.604895,70.1541223 143.314685,72.674232 C140.923077,77.3544357 139.797203,82.6008777 139.384615,87.8403292 C139.097902,91.4439812 139.153846,95.1524922 140.339161,98.5673981 C141.601399,102.202508 144.062937,105.295846 145.622378,108.812116 C147.93007,114.006129 148.160839,119.850266 148.339161,125.530125 C148.517483,131.209984 148.667832,136.851395 148.800699,142.510282 C148.884615,146.068495 148.891608,149.87837 146.923077,152.845878 C154.192308,149.934295 161.562937,146.963292 167.783217,142.209687 C174.003497,137.456082 179.038462,130.601803 179.842657,122.814279 C180.493007,116.501771 178.36014,110.280141 176.520979,104.205313 C171.975524,89.1755329 169.038462,73.1530878 172.346154,57.8052351 C173.538462,52.2791693 176.437063,46.1099687 182,45.092837 C185.395105,44.4741693 188.783217,46.0225862 191.842657,47.6234326 C199.073427,51.4053448 206.527972,56.2987618 209.22028,63.9989028 C211.667832,70.9615361 209.608392,78.7176019 206.423077,85.3656583 C203.237762,92.0137147 198.902098,98.1269906 196.426573,105.075643 C192.625874,115.736301 193.695804,128.218009 200.01049,137.609875 C206.325175,147.00174 217.993007,152.779467 229.213287,151.262508 C228.335664,147.473605 225.583916,144.411724 224.108392,140.811567 C221.426573,134.271865 223.234266,126.749984 226.118881,120.297665 C229.003497,113.845345 232.940559,107.829937 234.744755,100.979154 C236.017483,96.1556426 236.171329,91.1154232 236.164555,86.1276332 C236.164555,78.2771944 235.776224,70.4232602 235.020979,62.6077743 C234.265734,54.7922884 233.111888,46.8789342 230.622378,39.3605486 C228.622378,33.3311599 225.70979,27.5010031 221.353147,22.8767241 C216.716783,17.9518495 210.681818,14.6138401 204.755245,11.3422414 C201.20979,9.3918652 197.587413,7.41702194 193.608392,6.6865047 C190.461538,6.10978056 187.153846,5.28838558 183.944056,5.23449858 C181.762238,5.20449843 179.468531,5.67636364 177.93007,7.22478056 Z" id="Path" fill="#434175"></path>
                    <path d="M211.305855,42.8347236 L226.781813,42.8337258 C228.383439,42.8332485 229.681897,44.131539 229.682,45.7331648 C229.682,45.7332895 229.682,45.7334142 229.681626,45.7335388 L229.678805,89.4765099 C229.678327,91.0779896 228.380097,92.3762195 226.778618,92.3766969 L211.30266,92.3776947 C209.701034,92.378172 208.402576,91.0798814 208.402473,89.4782557 C208.402473,89.478131 208.402473,89.4780063 208.402847,89.4778817 L208.405668,45.7349106 C208.406146,44.1334309 209.704376,42.8352009 211.305855,42.8347236 Z" id="Rectangle" fill="#656478" transform="translate(219.042236, 67.605710) rotate(10.980000) translate(-219.042236, -67.605710) "></path>
                    <path d="M212.734122,43.1117752 L228.210079,43.1107773 C229.811705,43.1103 231.110163,44.4085906 231.110266,46.0102163 C231.110266,46.010341 231.110266,46.0104657 231.109892,46.0105903 L231.107071,89.7535614 C231.106594,91.3550411 229.808364,92.6532711 228.206884,92.6537484 L212.730926,92.6547462 C211.129301,92.6552235 209.830843,91.356933 209.830739,89.7553072 C209.830739,89.7551825 209.830739,89.7550578 209.831113,89.7549332 L209.833935,46.0119621 C209.834412,44.4104824 211.132642,43.1122525 212.734122,43.1117752 Z" id="Rectangle" fill="#3F3D56" transform="translate(220.470503, 67.882762) rotate(10.980000) translate(-220.470503, -67.882762) "></path>
                    <ellipse id="Oval" fill="#0A876E" transform="translate(223.123096, 54.094520) rotate(-79.020000) translate(-223.123096, -54.094520) " cx="223.123096" cy="54.0945203" rx="3.51281825" ry="1.4510308"></ellipse>
                    <path d="M229.020979,70.2554859 C228.097902,68.6231818 227.111888,66.934953 225.555944,65.8898589 C224.661518,65.3414646 223.700253,64.9103369 222.695804,64.6070846 C219.307692,63.4221787 215.863636,62.2267868 212.27972,62.0380408 C211.695804,62.0100784 211.027972,62.0380408 210.646853,62.4854389 C209.863636,63.4047022 211.104895,64.6560188 212.178322,65.2117712 L220.716783,69.6333229 L212.846154,68.801442 C211.702797,68.6791066 210.073427,68.9901881 210.157343,70.1366458 C210.213287,70.8881348 211.038462,71.2970846 211.751748,71.5347649 C216.804196,73.2824138 222.643357,74.6525705 225.409091,79.2244201 C221.723776,78.8748903 217.958042,78.5253605 214.346154,79.3362696 C213.356643,79.5599687 212.332168,79.9060031 211.685315,80.6854545 C211.038462,81.464906 210.965035,82.7826332 211.77972,83.4013009 C212.283217,83.7752978 212.961538,83.7857837 213.590909,83.7508307 C216.153846,83.6284953 218.783217,83.1181818 221.244755,83.8486991 C223.706294,84.5792163 225.891608,87.1587461 225.041958,89.5774922 C227.223776,89.7732288 229.804196,89.5774922 231.821678,88.6372571 C234.045455,87.5886677 233.993007,85.6173197 233.856643,83.2405172 C233.566434,78.5847806 231.255245,74.2401254 229.020979,70.2554859 Z" id="Path" fill="#FBBEBE"></path>
                    <path d="M226.814685,146.449483 C224.857979,132.694712 222.173563,119.053247 218.772727,105.582461 C217.024476,98.5918652 215.038462,91.4824295 215.538462,84.2891066 C222.762238,85.2083699 229.234266,85.889953 235.891608,82.9399216 C236,86.7183386 238.741259,89.9305172 239.737762,93.5831034 C240.405594,96.0298119 240.153846,98.6198276 240.416084,101.139937 C240.678322,103.660047 241.465035,106.10326 242.13986,108.553464 C245.488147,120.695172 246.277542,133.399686 244.458042,145.862273 C238.27972,146.596285 232.979021,147.403699 226.814685,146.449483 Z" id="Path" fill="#000000" opacity="0.1"></path>
                    <path d="M225.765734,146.449483 C223.809028,132.694712 221.124612,119.053247 217.723776,105.582461 C215.975524,98.5918652 213.98951,91.4824295 214.48951,84.2891066 C221.713287,85.2083699 228.185315,85.889953 234.842657,82.9399216 C234.951049,86.7183386 237.692308,89.9305172 238.688811,93.5831034 C239.356643,96.0298119 239.104895,98.6198276 239.367133,101.139937 C239.629371,103.660047 240.416084,106.10326 241.090909,108.553464 C244.439196,120.695172 245.228591,133.399686 243.409091,145.862273 C237.230769,146.596285 231.93007,147.403699 225.765734,146.449483 Z" id="Path" fill="#0A876E"></path>
                    <path d="M124.695804,214.530893 L128.118881,129.640596 C128.232139,126.835173 130.555108,124.627565 133.363636,124.656024 L268.51049,125.949561 C269.958199,125.964458 271.334039,126.582509 272.306438,127.654765 C273.278837,128.72702 273.759601,130.156231 273.632867,131.597962 L266.493007,212.923056 C266.260708,215.571745 264.064974,217.617373 261.405594,217.66268 L129.979021,219.93537 C128.549077,219.958832 127.172296,219.393165 126.172672,218.370738 C125.173047,217.348312 124.638855,215.959416 124.695804,214.530893 L124.695804,214.530893 Z" id="Path" fill="#3F3D56"></path>
                    <ellipse id="Oval" fill="#0A876E" cx="200.174825" cy="163.230408" rx="5.94405594" ry="6.99059561"></ellipse>
                    <path d="M327.272727,158.427868 L326.993007,160.825643 L322.447552,199.574514 C310.597902,207.833903 301.381119,199.896082 301.300699,199.574514 L295.573427,160.643887 L295.248252,158.427868 L327.272727,158.427868 Z" id="Path" fill="#3F3D56"></path>
                    <path d="M327.272727,158.427868 L326.993007,160.825643 C313.643357,168.585204 299.402098,162.545329 295.573427,160.643887 L295.248252,158.427868 L327.272727,158.427868 Z" id="Path" fill="#000000" opacity="0.1"></path>
                    <path d="M294.58042,156.323699 L294.58042,159.818997 C294.58042,159.818997 312.237762,170.081191 328.146853,159.818997 L328.146853,156.323699 L294.58042,156.323699 Z" id="Path" fill="#0A876E"></path>
                    <path d="M296.632867,151.706411 C296.632867,151.706411 296.118881,154.065737 294.58042,154.271959 L294.58042,157.246458 L328.146853,157.246458 L328.146853,154.579545 C328.146853,154.579545 326.094406,154.065737 326.398601,151.706411 L296.632867,151.706411 Z" id="Path" fill="#0A876E"></path>
                    <ellipse id="Oval" fill="#0A876E" cx="311.262238" cy="151.961567" rx="15.1398601" ry="4.36213166"></ellipse>
                    <ellipse id="Oval" fill="#000000" opacity="0.1" cx="311.262238" cy="151.961567" rx="15.1398601" ry="4.36213166"></ellipse>
                    <path d="M324.552448,151.706411 C324.552448,153.45406 318.811189,154.887132 311.723776,154.887132 L311.346154,154.887132 C306.587413,154.852179 302.475524,154.188072 300.377622,153.195408 C299.43007,152.748009 298.891608,152.241191 298.891608,151.706411 C298.891608,150.818605 300.36014,150.014687 302.737762,149.437962 C305.692027,148.79218 308.710455,148.486103 311.734266,148.52569 C318.811189,148.52569 324.552448,149.948276 324.552448,151.706411 Z" id="Path" fill="#000000" opacity="0.1"></path>
                    <path d="M311.346154,154.887132 C306.587413,154.852179 302.475524,154.188072 300.377622,153.195408 L300.377622,153.195408 L302.727273,149.423981 L311.346154,154.887132 Z" id="Path" fill="#000000" opacity="0.1"></path>
                    <path d="M297.937063,151.951082 C297.755245,151.912633 297.513986,151.975549 297.479021,152.157304 C297.474392,152.249841 297.498845,152.341506 297.548951,152.419451 C297.94968,153.053057 298.53211,153.551241 299.22028,153.849028 C299.337734,153.915156 299.467389,153.956774 299.601399,153.971364 C299.744256,153.988463 299.883008,153.916337 299.951049,153.789608 C299.990087,153.682785 299.981167,153.564324 299.926573,153.464545 C299.819658,153.275509 299.671457,153.113021 299.493007,152.989185 C299.024476,152.622179 298.545455,152.052445 297.937063,151.951082 Z" id="Path" fill="#000000" opacity="0.1"></path>
                    <ellipse id="Oval" fill="#0A876E" cx="311.772727" cy="180.283966" rx="9.03146853" ry="9.02835423"></ellipse>
                    <path d="M65.8496503,180.304937 L70.0839161,180.304937 C74.91158,180.304937 78.8251748,184.217183 78.8251748,189.043182 L78.8251748,202.028213 L57.1083916,202.028213 L57.1083916,189.043182 C57.1083916,184.217183 61.0219865,180.304937 65.8496503,180.304937 Z" id="Path" fill="#3F3D56"></path>
                    <path d="M65.8496503,180.304937 L70.0839161,180.304937 C74.91158,180.304937 78.8251748,184.217183 78.8251748,189.043182 L78.8251748,202.028213 L57.1083916,202.028213 L57.1083916,189.043182 C57.1083916,184.217183 61.0219865,180.304937 65.8496503,180.304937 Z" id="Path" fill="#000000" opacity="0.1"></path>
                    <ellipse id="Oval" fill="#3F3D56" cx="67.0979021" cy="183.345846" rx="1.73776224" ry="1.73716301"></ellipse>
                    <ellipse id="Oval" fill="#3F3D56" cx="67.0979021" cy="181.175266" rx="1.73776224" ry="1.73716301"></ellipse>
                    <ellipse id="Oval" fill="#3F3D56" cx="67.0979021" cy="179.001191" rx="1.73776224" ry="1.73716301"></ellipse>
                    <ellipse id="Oval" fill="#3F3D56" cx="67.0979021" cy="176.830611" rx="1.73776224" ry="1.73716301"></ellipse>
                    <ellipse id="Oval" fill="#3F3D56" cx="67.0979021" cy="174.660031" rx="1.73776224" ry="1.73716301"></ellipse>
                    <ellipse id="Oval" fill="#3F3D56" cx="67.0979021" cy="172.489451" rx="1.73776224" ry="1.73716301"></ellipse>
                    <ellipse id="Oval" fill="#3F3D56" cx="67.0979021" cy="170.318871" rx="1.73776224" ry="1.73716301"></ellipse>
                    <ellipse id="Oval" fill="#3F3D56" cx="69.7062937" cy="171.185705" rx="1.73776224" ry="1.73716301"></ellipse>
                    <ellipse id="Oval" fill="#3F3D56" cx="71.4440559" cy="170.318871" rx="1.73776224" ry="1.73716301"></ellipse>
                    <ellipse id="Oval" fill="#3F3D56" cx="73.1818182" cy="169.448542" rx="1.73776224" ry="1.73716301"></ellipse>
                    <ellipse id="Oval" fill="#3F3D56" cx="67.0979021" cy="168.148292" rx="1.73776224" ry="1.73716301"></ellipse>
                    <ellipse id="Oval" fill="#3F3D56" cx="67.0979021" cy="165.977712" rx="1.73776224" ry="1.73716301"></ellipse>
                    <ellipse id="Oval" fill="#3F3D56" cx="67.0979021" cy="163.803636" rx="1.73776224" ry="1.73716301"></ellipse>
                    <ellipse id="Oval" fill="#3F3D56" cx="67.0979021" cy="161.633056" rx="1.73776224" ry="1.73716301"></ellipse>
                    <path d="M74.3006993,156.033589 C73.8706294,156.096505 73.4370629,156.141944 73.0034965,156.169906 C73.4080622,155.816242 73.7834072,155.430506 74.1258741,155.016458 C73.8839439,154.286982 73.5300704,153.599525 73.0769231,152.978699 C72.6461894,153.220571 72.1699641,153.37053 71.6783217,153.419107 C71.2482517,153.482022 70.8146853,153.527461 70.3811189,153.558918 C70.951049,153.094044 71.4825175,152.394984 72.041958,151.81127 C69.3720153,149.391226 65.3433612,149.254992 62.515923,151.489135 C59.6884848,153.723279 58.8907575,157.673151 60.6296409,160.828886 C62.3685243,163.98462 66.1344912,165.421525 69.5345339,164.226547 C72.9345766,163.031569 74.9724155,159.554861 74.3531469,156.005627 L74.3006993,156.033589 Z" id="Path" fill="#0A876E"></path>
                    <path d="M80.1083916,164.66348 C79.6650377,164.93556 79.1649098,165.101814 78.6468531,165.149326 C78.2167832,165.212241 77.7832168,165.261176 77.3496503,165.289138 C77.8104661,164.875943 78.240512,164.429691 78.6363636,163.953934 C76.4652357,163.388061 74.2197853,164.565918 73.4519564,166.673429 C72.6841276,168.780941 73.6459008,171.126479 75.6725462,172.088924 C77.6991915,173.051368 80.1256191,172.314872 81.2748026,170.388464 C82.4239861,168.462056 81.9187947,165.977932 80.1083916,164.652994 L80.1083916,164.66348 Z" id="Path" fill="#0A876E"></path>
                    <ellipse id="Oval" fill="#3F3D56" cx="64.493007" cy="171.185705" rx="1.73776224" ry="1.73716301"></ellipse>
                    <ellipse id="Oval" fill="#3F3D56" cx="62.7552448" cy="170.318871" rx="1.73776224" ry="1.73716301"></ellipse>
                    <ellipse id="Oval" fill="#3F3D56" cx="61.0174825" cy="169.448542" rx="1.73776224" ry="1.73716301"></ellipse>
                    <path d="M54.0909091,164.66348 C54.5340485,164.936021 55.034287,165.10231 55.5524476,165.149326 C55.9825175,165.212241 56.4160839,165.261176 56.8496503,165.289138 C56.3879655,164.876844 55.9578553,164.430525 55.5629371,163.953934 C57.734065,163.388061 59.9795154,164.565918 60.7473443,166.673429 C61.5151731,168.780941 60.5533999,171.126479 58.5267545,172.088924 C56.5001092,173.051368 54.0736816,172.314872 52.9244981,170.388464 C51.7753146,168.462056 52.280506,165.977932 54.0909091,164.652994 L54.0909091,164.66348 Z" id="Path" fill="#0A876E"></path>
                    <path d="M65.8496503,181.608683 L70.0839161,181.608683 C74.91158,181.608683 78.8251748,185.520929 78.8251748,190.346928 L78.8251748,201.835972 C78.8251748,202.654461 78.1614291,203.317978 77.3426573,203.317978 L58.5909091,203.317978 C57.7721373,203.317978 57.1083916,202.654461 57.1083916,201.835972 L57.1083916,190.346928 C57.1083916,185.520929 61.0219865,181.608683 65.8496503,181.608683 L65.8496503,181.608683 Z" id="Path" fill="#3F3D56"></path>
                    <g id="Group" opacity="0.1" transform="translate(59.440559, 149.948276)" fill="#000000">
                        <path d="M14.993007,6.56067398 C14.8170776,6.74855025 14.6302766,6.92594993 14.4335664,7.09195925 C14.6328671,7.09195925 14.8286713,7.06050157 15.027972,7.03952978 C15.034965,6.87874608 15.0104895,6.71796238 14.993007,6.56067398 Z" id="Path"></path>
                        <path d="M11.8251748,4.48446708 C12.2622378,4.4565047 12.6923077,4.41106583 13.1258741,4.34815047 C13.5148586,4.29887663 13.8950139,4.19534062 14.2552448,4.04056426 C14.0791834,3.69069035 13.8757536,3.35526388 13.6468531,3.03741379 C13.4293722,3.16977153 13.193813,3.26984968 12.9475524,3.33451411 C12.6046838,3.74712256 12.229362,4.1316655 11.8251748,4.48446708 Z" id="Path"></path>
                        <path d="M1.14335664,8.21394984 C1.13805428,5.51450863 2.60986592,3.0282832 4.97951161,1.7338095 C7.3491573,0.439335794 10.2372144,0.543882164 12.506993,2.00630094 L12.6188811,1.88746082 C10.6401516,0.127485095 7.8695097,-0.437119012 5.35951652,0.408140433 C2.84952334,1.25339988 0.985386468,3.37880127 0.475287658,5.97690901 C-0.0348111525,8.57501674 0.887412746,11.2471003 2.89160839,12.9780408 C1.76080274,11.6482875 1.14098664,9.95925146 1.14335664,8.21394984 L1.14335664,8.21394984 Z" id="Path"></path>
                    </g>
                    <g id="Group" opacity="0.1" transform="translate(73.076923, 163.579937)" fill="#000000">
                        <path d="M4.27272727,2.57603448 C4.70629371,2.5480721 5.13986014,2.50263323 5.56993007,2.43971787 C6.08822136,2.39089476 6.58831356,2.22345752 7.03146853,1.95037618 C8.02431013,2.68133043 8.65983011,3.7994599 8.77972028,5.02623824 C8.79667972,4.8742077 8.8048518,4.72132574 8.8041958,4.56835423 C8.8108789,3.19157253 8.16175921,1.89378082 7.05594406,1.07305643 C6.61259018,1.34513722 6.11246225,1.51139035 5.59440559,1.55890282 L5.24475524,1.60434169 C4.94637688,1.95288619 4.621392,2.277759 4.27272727,2.57603448 Z" id="Path"></path>
                        <path d="M4.44755245,1.09402821 C4.59258038,1.09568273 4.73737195,1.10618817 4.88111888,1.12548589 C5.10839161,0.884310345 5.33216783,0.625658307 5.55944056,0.373996865 C4.2565699,0.0261023064 2.86594537,0.304048058 1.79705259,1.12598975 C0.728159806,1.94793144 0.10271774,3.22027138 0.104889439,4.56835423 C0.104889439,4.71515674 0.104889439,4.85846395 0.125874126,5.00177116 C0.348591023,2.78292081 2.21679099,1.09365921 4.44755245,1.09402821 L4.44755245,1.09402821 Z" id="Path"></path>
                    </g>
                    <g id="Group" opacity="0.1" transform="translate(52.097902, 163.579937)" fill="#000000">
                        <path d="M4.75174825,2.57603448 C4.31818182,2.5480721 3.88461538,2.50263323 3.45454545,2.43971787 C2.93612314,2.39151454 2.43589314,2.22403116 1.99300699,1.95037618 C1.0001654,2.68133043 0.364645418,3.7994599 0.244755245,5.02623824 C0.227795807,4.8742077 0.219623724,4.72132574 0.22027972,4.56835423 C0.213596623,3.19157253 0.862716314,1.89378082 1.96853147,1.07305643 C2.41167085,1.34559737 2.91190939,1.51188728 3.43006993,1.55890282 L3.77972028,1.60434169 C4.07621396,1.95462461 4.40134451,2.27964304 4.75174825,2.57603448 L4.75174825,2.57603448 Z" id="Path"></path>
                        <path d="M4.57692308,1.09402821 C4.43073389,1.09568764 4.28477926,1.10619275 4.13986014,1.12548589 C3.91608392,0.884310345 3.69230769,0.625658307 3.46503497,0.373996865 C4.76790562,0.0261023064 6.15853015,0.304048058 7.22742294,1.12598975 C8.29631572,1.94793144 8.92175778,3.22027138 8.91958609,4.56835423 C8.91958609,4.71515674 8.91958609,4.85846395 8.8986014,5.00177116 C8.6758845,2.78292081 6.80768453,1.09365921 4.57692308,1.09402821 Z" id="Path"></path>
                    </g>
                </g>
            </g>
        </g>
    </g>
</svg>