<?xml version="1.0" encoding="UTF-8"?>
<svg width="943px" height="200px" viewBox="0 0 943 200" version="1.1" xmlns="http://www.w3.org/2000/svg" xmlns:xlink="http://www.w3.org/1999/xlink">
    <title>undraw_Astronaut_xko2</title>
    <defs>
        <linearGradient x1="49.9999338%" y1="99.9998677%" x2="49.9999338%" y2="0%" id="linearGradient-1">
            <stop stop-color="#808080" stop-opacity="0.25" offset="0%"></stop>
            <stop stop-color="#808080" stop-opacity="0.12" offset="53.514%"></stop>
            <stop stop-color="#808080" stop-opacity="0.1" offset="100%"></stop>
        </linearGradient>
        <linearGradient x1="50.0000165%" y1="99.9998677%" x2="50.0000165%" y2="9.40165456e-14%" id="linearGradient-2">
            <stop stop-color="#808080" stop-opacity="0.25" offset="0%"></stop>
            <stop stop-color="#808080" stop-opacity="0.12" offset="53.514%"></stop>
            <stop stop-color="#808080" stop-opacity="0.1" offset="100%"></stop>
        </linearGradient>
        <linearGradient x1="50.000021%" y1="99.9998317%" x2="50.000021%" y2="0%" id="linearGradient-3">
            <stop stop-color="#808080" stop-opacity="0.25" offset="0%"></stop>
            <stop stop-color="#808080" stop-opacity="0.12" offset="53.514%"></stop>
            <stop stop-color="#808080" stop-opacity="0.1" offset="100%"></stop>
        </linearGradient>
        <linearGradient x1="50.000021%" y1="99.9998317%" x2="50.000021%" y2="-1.19552917e-13%" id="linearGradient-4">
            <stop stop-color="#808080" stop-opacity="0.25" offset="0%"></stop>
            <stop stop-color="#808080" stop-opacity="0.12" offset="53.514%"></stop>
            <stop stop-color="#808080" stop-opacity="0.1" offset="100%"></stop>
        </linearGradient>
        <linearGradient x1="50%" y1="100%" x2="50%" y2="2.34058383e-13%" id="linearGradient-5">
            <stop stop-color="#808080" stop-opacity="0.25" offset="0%"></stop>
            <stop stop-color="#808080" stop-opacity="0.12" offset="53.514%"></stop>
            <stop stop-color="#808080" stop-opacity="0.1" offset="100%"></stop>
        </linearGradient>
        <linearGradient x1="50%" y1="100.000054%" x2="50%" y2="0%" id="linearGradient-6">
            <stop stop-color="#808080" stop-opacity="0.25" offset="0%"></stop>
            <stop stop-color="#808080" stop-opacity="0.12" offset="53.514%"></stop>
            <stop stop-color="#808080" stop-opacity="0.1" offset="100%"></stop>
        </linearGradient>
        <linearGradient x1="50%" y1="100%" x2="50%" y2="0%" id="linearGradient-7">
            <stop stop-color="#808080" stop-opacity="0.25" offset="0%"></stop>
            <stop stop-color="#808080" stop-opacity="0.12" offset="53.514%"></stop>
            <stop stop-color="#808080" stop-opacity="0.1" offset="100%"></stop>
        </linearGradient>
    </defs>
    <g id="Rough-Space" stroke="none" stroke-width="1" fill="none" fill-rule="evenodd" opacity="0.5">
        <g id="Desktop-HD" transform="translate(-322.000000, -701.000000)" fill-rule="nonzero">
            <g id="undraw_Astronaut_xko2" transform="translate(322.000000, 701.000000)">
                <path d="M295.89405,16.6081932 L293.95255,16.6081932 C293.55713,16.6081932 292.57924,15.1086763 292.57924,14.6783961 L292.57924,12.9355652 C292.57924,11.5755362 290.9869,7.84441546 289.57924,7.84441546 C288.17158,7.84441546 286.57924,11.5755362 286.57924,12.9355652 L286.57924,14.6783961 C286.57924,15.2916135 286.08924,16.6081932 285.49016,16.6081932 L283.54866,16.6081932 C282.14098,16.6081932 278.27932,17.6635942 278.27932,19.0236522 C278.27932,20.3837101 282.14098,21.4391111 283.54866,21.4391111 L285.86414,21.4391111 C286.59737,21.4391111 286.57924,22.1678261 286.57924,22.5388309 L286.57924,24.8634686 C286.57924,26.2235556 288.17158,29.9546184 289.57924,29.9546184 C290.9869,29.9546184 292.57924,26.2235556 292.57924,24.8634686 L292.57924,22.5388309 C292.57924,22.2308309 293.22301,21.4391111 293.57858,21.4391111 L295.89405,21.4391111 C297.30168,21.4391111 301.16339,20.3837681 301.16339,19.0236522 C301.16339,17.6635362 297.30168,16.6081932 295.89405,16.6081932 Z" id="Path" fill="#2196F3"></path>
                <path d="M23.87565,116.3557 L21.31088,116.3557 C20.78852,116.3557 19.4967,114.374773 19.4967,113.806386 L19.4967,111.504068 C19.4967,109.70743 17.39317,104.778512 15.53358,104.778512 C13.67399,104.778512 11.57058,109.70743 11.57058,111.504068 L11.57058,113.806386 C11.57058,114.616464 10.92329,116.3557 10.13188,116.3557 L7.56711,116.3557 C5.70751,116.3557 0.60611,117.749903 0.60611,119.546628 C0.60611,121.343353 5.70746,122.737478 7.56711,122.737478 L10.62591,122.737478 C11.59453,122.737478 11.57058,123.700135 11.57058,124.190251 L11.57058,127.261159 C11.57058,129.057874 13.67411,133.986763 15.53358,133.986763 C17.39305,133.986763 19.4967,129.057913 19.4967,127.261159 L19.4967,124.190251 C19.4967,123.783362 20.34714,122.737478 20.81685,122.737478 L23.87565,122.737478 C25.73518,122.737478 30.83665,121.343333 30.83665,119.546628 C30.83665,117.749923 25.73518,116.3557 23.87565,116.3557 Z" id="Path" fill="url(#linearGradient-1)"></path>
                <path d="M297.87565,15.8726087 L295.31088,15.8726087 C294.78852,15.8726087 293.4967,13.8916812 293.4967,13.3232947 L293.4967,11.0209758 C293.4967,9.22433816 291.39317,4.29542029 289.53358,4.29542029 C287.67399,4.29542029 285.57053,9.22433816 285.57053,11.0209758 L285.57053,13.3232947 C285.57053,14.133372 284.92324,15.8726087 284.13183,15.8726087 L281.56706,15.8726087 C279.70746,15.8726087 274.60606,17.2668116 274.60606,19.0635362 C274.60606,20.8602609 279.70741,22.2543865 281.56706,22.2543865 L284.62586,22.2543865 C285.59448,22.2543865 285.57053,23.2170435 285.57053,23.7071594 L285.57053,26.7780676 C285.57053,28.5747826 287.67406,33.5036715 289.53358,33.5036715 C291.3931,33.5036715 293.4967,28.5748213 293.4967,26.7780676 L293.4967,23.7071594 C293.4967,23.3002705 294.34714,22.2543865 294.81685,22.2543865 L297.87565,22.2543865 C299.73518,22.2543865 304.83665,20.8602415 304.83665,19.0635362 C304.83665,17.2668309 299.73518,15.8726087 297.87565,15.8726087 Z" id="Path" fill="url(#linearGradient-2)"></path>
                <path d="M574.87565,61.2832367 L572.31088,61.2832367 C571.78852,61.2832367 570.4967,59.3023092 570.4967,58.7339227 L570.4967,56.4316039 C570.4967,54.6349662 568.39317,49.7060483 566.53358,49.7060483 C564.67399,49.7060483 562.57053,54.6349662 562.57053,56.4316039 L562.57053,58.7339227 C562.57053,59.544 561.92324,61.2832367 561.13183,61.2832367 L558.56706,61.2832367 C556.70746,61.2832367 551.60606,62.6774396 551.60606,64.4741643 C551.60606,66.2708889 556.70741,67.6650145 558.56706,67.6650145 L561.62586,67.6650145 C562.59448,67.6650145 562.57053,68.6276715 562.57053,69.1177874 L562.57053,72.1886957 C562.57053,73.9854106 564.67406,78.9142995 566.53358,78.9142995 C568.3931,78.9142995 570.4967,73.9854493 570.4967,72.1886957 L570.4967,69.1177874 C570.4967,68.7108986 571.34714,67.6650145 571.81685,67.6650145 L574.87565,67.6650145 C576.73518,67.6650145 581.83665,66.2708696 581.83665,64.4741643 C581.83665,62.6774589 576.73518,61.2832367 574.87565,61.2832367 Z" id="Path" fill="url(#linearGradient-2)"></path>
                <path d="M464.80521,45.5937005 L463.56788,45.5937005 C463.31588,45.5937005 462.57924,44.6478068 462.57924,44.3735845 L462.57924,43.2628696 C462.57924,42.3961159 461.47635,40.0182512 460.57924,40.0182512 C459.68213,40.0182512 458.57924,42.3961159 458.57924,43.2628696 L458.57924,44.3735845 C458.57924,44.7643961 458.55655,45.5937005 458.17475,45.5937005 L456.93742,45.5937005 C456.0403,45.5937005 453.57924,46.1762029 453.57924,47.0429758 C453.57924,47.9097488 456.0403,48.4922512 456.93742,48.4922512 L458.41309,48.4922512 C458.88038,48.4922512 458.57924,49.1466473 458.57924,49.3830725 L458.57924,50.8645797 C458.57924,51.731372 459.68213,54.1091981 460.57924,54.1091981 C461.47635,54.1091981 462.57924,51.7314203 462.57924,50.8645797 L462.57924,49.3830918 C462.57924,49.1867923 463.10294,48.4922705 463.32954,48.4922705 L464.80521,48.4922705 C465.7023,48.4922705 468.16339,47.9097971 468.16339,47.0429952 C468.16339,46.1761932 465.7023,45.5937005 464.80521,45.5937005 Z" id="Path" fill="#1976D2"></path>
                <path d="M117.28386,99.7399324 L115.26693,99.7399324 C114.85614,99.7399324 113.65536,98.198029 113.65536,97.7510531 L113.65536,95.9405024 C113.65536,94.5276232 111.85757,90.6515169 110.39518,90.6515169 C108.93279,90.6515169 107.13505,94.5276232 107.13505,95.9405024 L107.13505,97.7510531 C107.13505,98.388087 107.09805,99.7399324 106.47571,99.7399324 L104.45877,99.7399324 C102.99638,99.7399324 98.98467,100.689449 98.98467,102.102386 C98.98467,103.515324 102.99638,104.464792 104.45877,104.464792 L106.86421,104.464792 C107.62594,104.464792 107.13505,105.531459 107.13505,105.916966 L107.13505,108.331932 C107.13505,109.74487 108.93285,113.620918 110.39518,113.620918 C111.85751,113.620918 113.65536,109.74487 113.65536,108.331932 L113.65536,105.916908 C113.65536,105.596937 114.50904,104.464734 114.87842,104.464734 L117.28386,104.464734 C118.74619,104.464734 122.75796,103.515266 122.75796,102.102329 C122.75796,100.689391 118.74619,99.7399324 117.28386,99.7399324 Z" id="Path" fill="url(#linearGradient-3)"></path>
                <path d="M467.28386,44.6674686 L465.26693,44.6674686 C464.85614,44.6674686 463.65536,43.1255652 463.65536,42.6785894 L463.65536,40.8680386 C463.65536,39.4551594 461.85757,35.5790531 460.39518,35.5790531 C458.93279,35.5790531 457.13505,39.4551594 457.13505,40.8680386 L457.13505,42.6785894 C457.13505,43.3156232 457.09805,44.6674686 456.47571,44.6674686 L454.45877,44.6674686 C452.99638,44.6674686 448.98467,45.6169855 448.98467,47.0299227 C448.98467,48.4428599 452.99638,49.3923285 454.45877,49.3923285 L456.86421,49.3923285 C457.62594,49.3923285 457.13505,50.4589952 457.13505,50.8445024 L457.13505,53.2594686 C457.13505,54.6724058 458.93285,58.5484541 460.39518,58.5484541 C461.85751,58.5484541 463.65536,54.6724058 463.65536,53.2594686 L463.65536,50.8444444 C463.65536,50.5244734 464.50904,49.3922705 464.87842,49.3922705 L467.28386,49.3922705 C468.74619,49.3922705 472.75796,48.4428019 472.75796,47.0298647 C472.75796,45.6169275 468.74619,44.6674686 467.28386,44.6674686 Z" id="Path" fill="url(#linearGradient-4)"></path>
                <path d="M114.80521,100.666164 L113.56788,100.666164 C113.31588,100.666164 112.57924,99.7202705 112.57924,99.4460483 L112.57924,98.3353333 C112.57924,97.4685797 111.47635,95.090715 110.57924,95.090715 C109.68213,95.090715 108.57924,97.4685797 108.57924,98.3353333 L108.57924,99.4460483 C108.57924,99.8368599 108.55655,100.666164 108.17475,100.666164 L106.93742,100.666164 C106.0403,100.666164 103.57924,101.248667 103.57924,102.11544 C103.57924,102.982213 106.0403,103.564715 106.93742,103.564715 L108.41309,103.564715 C108.88038,103.564715 108.57924,104.219111 108.57924,104.455536 L108.57924,105.937043 C108.57924,106.803836 109.68213,109.181662 110.57924,109.181662 C111.47635,109.181662 112.57924,106.803884 112.57924,105.937043 L112.57924,104.455556 C112.57924,104.259256 113.10294,103.564734 113.32954,103.564734 L114.80521,103.564734 C115.7023,103.564734 118.16339,102.982261 118.16339,102.115459 C118.16339,101.248657 115.7023,100.666164 114.80521,100.666164 Z" id="Path" fill="#1976D2"></path>
                <ellipse id="Oval" fill="#64B5F6" cx="399.07924" cy="22.8883865" rx="7.5" ry="7.24637681"></ellipse>
                <ellipse id="Oval" fill="#0071BC" cx="384.07924" cy="91.8094783" rx="2.5" ry="2.41545894"></ellipse>
                <ellipse id="Oval" fill="#64B5F6" cx="101.53757" cy="36.8577874" rx="6.95833" ry="6.72302415"></ellipse>
                <ellipse id="Oval" fill="#64B5F6" cx="40.05841" cy="62.3016522" rx="3.47917" ry="3.36151691"></ellipse>
                <ellipse id="Oval" fill="#82A9FF" cx="327.05841" cy="130.900686" rx="3.47917" ry="3.36151691"></ellipse>
                <ellipse id="Oval" fill="#82A9FF" cx="68.37132" cy="190.923816" rx="6.5" ry="6.28019324"></ellipse>
                <ellipse id="Oval" fill="url(#linearGradient-5)" cx="197.28757" cy="22.1234879" rx="6.0715" ry="5.86618357"></ellipse>
                <ellipse id="Oval" fill="url(#linearGradient-5)" cx="198.28757" cy="95.5534396" rx="6.0715" ry="5.86618357"></ellipse>
                <ellipse id="Oval" fill="url(#linearGradient-5)" cx="517.28757" cy="6.66455072" rx="6.0715" ry="5.86618357"></ellipse>
                <ellipse id="Oval" fill="url(#linearGradient-5)" cx="656.28757" cy="111.012377" rx="6.0715" ry="5.86618357"></ellipse>
                <ellipse id="Oval" fill="#0D47A1" cx="197.28757" cy="22.1234879" rx="3.70833" ry="3.58292754"></ellipse>
                <ellipse id="Oval" fill="#64B5F6" cx="290.07924" cy="75.0622995" rx="7.5" ry="7.24637681"></ellipse>
                <path d="M168.39405,123.85457 L166.45255,123.85457 C166.05713,123.85457 165.07924,122.355053 165.07924,121.924773 L165.07924,120.181942 C165.07924,118.821913 163.4869,115.090792 162.07924,115.090792 C160.67158,115.090792 159.07924,118.821913 159.07924,120.181942 L159.07924,121.924773 C159.07924,122.53799 158.58924,123.85457 157.99016,123.85457 L156.04866,123.85457 C154.64098,123.85457 150.77932,124.909971 150.77932,126.270029 C150.77932,127.630087 154.64098,128.685488 156.04866,128.685488 L158.36414,128.685488 C159.09737,128.685488 159.07924,129.414203 159.07924,129.785208 L159.07924,132.109845 C159.07924,133.469932 160.67158,137.200995 162.07924,137.200995 C163.4869,137.200995 165.07924,133.469932 165.07924,132.109845 L165.07924,129.785208 C165.07924,129.477208 165.72301,128.685488 166.07858,128.685488 L168.39405,128.685488 C169.80168,128.685488 173.66339,127.630145 173.66339,126.270029 C173.66339,124.909913 169.80168,123.85457 168.39405,123.85457 Z" id="Path" fill="#2196F3"></path>
                <ellipse id="Oval" fill="#0D47A1" cx="251.57924" cy="191.326367" rx="3.5" ry="3.38164251"></ellipse>
                <ellipse id="Oval" fill="#64B5F6" cx="631.03757" cy="125.746676" rx="6.95833" ry="6.72302415"></ellipse>
                <ellipse id="Oval" fill="#0071BC" cx="365.57924" cy="174.901266" rx="2.5" ry="2.41545894"></ellipse>
                <ellipse id="Oval" fill="#0D47A1" cx="198.28757" cy="95.5534396" rx="3.70833" ry="3.58292754"></ellipse>
                <path d="M572.89405,62.0188213 L570.95255,62.0188213 C570.55713,62.0188213 569.57924,60.5193043 569.57924,60.0890242 L569.57924,58.3461932 C569.57924,56.9861643 567.9869,53.2550435 566.57924,53.2550435 C565.17158,53.2550435 563.57924,56.9861643 563.57924,58.3461932 L563.57924,60.0890242 C563.57924,60.7022415 563.08924,62.0188213 562.49016,62.0188213 L560.54866,62.0188213 C559.14098,62.0188213 555.27932,63.0742222 555.27932,64.4342802 C555.27932,65.7943382 559.14098,66.8497391 560.54866,66.8497391 L562.86414,66.8497391 C563.59737,66.8497391 563.57924,67.5784541 563.57924,67.9494589 L563.57924,70.2740966 C563.57924,71.6341836 565.17158,75.3652464 566.57924,75.3652464 C567.9869,75.3652464 569.57924,71.6341836 569.57924,70.2740966 L569.57924,67.9494589 C569.57924,67.6414589 570.22301,66.8497391 570.57858,66.8497391 L572.89405,66.8497391 C574.30168,66.8497391 578.16339,65.7943961 578.16339,64.4342802 C578.16339,63.0741643 574.30168,62.0188213 572.89405,62.0188213 Z" id="Path" fill="#2196F3"></path>
                <ellipse id="Oval" fill="#0D47A1" cx="656.07924" cy="110.166947" rx="3.5" ry="3.38164251"></ellipse>
                <ellipse id="Oval" fill="#0D47A1" cx="517.07924" cy="6.78530435" rx="3.5" ry="3.38164251"></ellipse>
                <ellipse id="Oval" fill="url(#linearGradient-6)" cx="619.53757" cy="102.558271" rx="9.29903" ry="8.98457005"></ellipse>
                <ellipse id="Oval" fill="url(#linearGradient-6)" cx="484.53757" cy="118.983391" rx="9.29903" ry="8.98457005"></ellipse>
                <ellipse id="Oval" fill="url(#linearGradient-6)" cx="399.53757" cy="23.3312174" rx="9.29903" ry="8.98457005"></ellipse>
                <ellipse id="Oval" fill="url(#linearGradient-6)" cx="290.53757" cy="75.5051304" rx="9.29903" ry="8.98457005"></ellipse>
                <ellipse id="Oval" fill="url(#linearGradient-6)" cx="101.53757" cy="36.8577874" rx="9.29903" ry="8.98457005"></ellipse>
                <ellipse id="Oval" fill="url(#linearGradient-6)" cx="68.53757" cy="190.480976" rx="9.29903" ry="8.98457005"></ellipse>
                <ellipse id="Oval" fill="url(#linearGradient-7)" cx="591.05841" cy="7.22918841" rx="5.02583" ry="4.8558744"></ellipse>
                <ellipse id="Oval" fill="url(#linearGradient-7)" cx="327.05841" cy="130.900686" rx="5.02583" ry="4.8558744"></ellipse>
                <ellipse id="Oval" fill="url(#linearGradient-7)" cx="40.05841" cy="62.3016522" rx="5.02583" ry="4.8558744"></ellipse>
                <ellipse id="Oval" fill="url(#linearGradient-7)" cx="105.05841" cy="185.006966" rx="5.02583" ry="4.8558744"></ellipse>
                <ellipse id="Oval" fill="url(#linearGradient-7)" cx="219.05841" cy="168.581845" rx="5.02583" ry="4.8558744"></ellipse>
                <ellipse id="Oval" fill="url(#linearGradient-7)" cx="384.05841" cy="92.253343" rx="5.02583" ry="4.8558744"></ellipse>
                <ellipse id="Oval" fill="#82A9FF" cx="591.05841" cy="7.22918841" rx="3.47917" ry="3.36151691"></ellipse>
                <path d="M905.89405,12.6081932 L903.95255,12.6081932 C903.55713,12.6081932 902.57924,11.1086763 902.57924,10.6783961 L902.57924,8.93556522 C902.57924,7.57553623 900.9869,3.84441546 899.57924,3.84441546 C898.17158,3.84441546 896.57924,7.57553623 896.57924,8.93556522 L896.57924,10.6783961 C896.57924,11.2916135 896.08924,12.6081932 895.49016,12.6081932 L893.54866,12.6081932 C892.14098,12.6081932 888.27932,13.6635942 888.27932,15.0236522 C888.27932,16.3837101 892.14098,17.4391111 893.54866,17.4391111 L895.86414,17.4391111 C896.59737,17.4391111 896.57924,18.1678261 896.57924,18.5388309 L896.57924,20.8634686 C896.57924,22.2235556 898.17158,25.9546184 899.57924,25.9546184 C900.9869,25.9546184 902.57924,22.2235556 902.57924,20.8634686 L902.57924,18.5388309 C902.57924,18.2308309 903.22301,17.4391111 903.57858,17.4391111 L905.89405,17.4391111 C907.30168,17.4391111 911.16339,16.3837681 911.16339,15.0236522 C911.16339,13.6635362 907.30168,12.6081932 905.89405,12.6081932 Z" id="Path" fill="#2196F3"></path>
                <path d="M633.87565,112.3557 L631.31088,112.3557 C630.78852,112.3557 629.4967,110.374773 629.4967,109.806386 L629.4967,107.504068 C629.4967,105.70743 627.39317,100.778512 625.53358,100.778512 C623.67399,100.778512 621.57058,105.70743 621.57058,107.504068 L621.57058,109.806386 C621.57058,110.616464 620.92329,112.3557 620.13188,112.3557 L617.56711,112.3557 C615.70751,112.3557 610.60611,113.749903 610.60611,115.546628 C610.60611,117.343353 615.70746,118.737478 617.56711,118.737478 L620.62591,118.737478 C621.59453,118.737478 621.57058,119.700135 621.57058,120.190251 L621.57058,123.261159 C621.57058,125.057874 623.67411,129.986763 625.53358,129.986763 C627.39305,129.986763 629.4967,125.057913 629.4967,123.261159 L629.4967,120.190251 C629.4967,119.783362 630.34714,118.737478 630.81685,118.737478 L633.87565,118.737478 C635.73518,118.737478 640.83665,117.343333 640.83665,115.546628 C640.83665,113.749923 635.73518,112.3557 633.87565,112.3557 Z" id="Path" fill="url(#linearGradient-1)"></path>
                <path d="M907.87565,11.8726087 L905.31088,11.8726087 C904.78852,11.8726087 903.4967,9.89168116 903.4967,9.32329469 L903.4967,7.02097585 C903.4967,5.22433816 901.39317,0.29542029 899.53358,0.29542029 C897.67399,0.29542029 895.57053,5.22433816 895.57053,7.02097585 L895.57053,9.32329469 C895.57053,10.133372 894.92324,11.8726087 894.13183,11.8726087 L891.56706,11.8726087 C889.70746,11.8726087 884.60606,13.2668116 884.60606,15.0635362 C884.60606,16.8602609 889.70741,18.2543865 891.56706,18.2543865 L894.62586,18.2543865 C895.59448,18.2543865 895.57053,19.2170435 895.57053,19.7071594 L895.57053,22.7780676 C895.57053,24.5747826 897.67406,29.5036715 899.53358,29.5036715 C901.3931,29.5036715 903.4967,24.5748213 903.4967,22.7780676 L903.4967,19.7071594 C903.4967,19.3002705 904.34714,18.2543865 904.81685,18.2543865 L907.87565,18.2543865 C909.73518,18.2543865 914.83665,16.8602415 914.83665,15.0635362 C914.83665,13.2668309 909.73518,11.8726087 907.87565,11.8726087 Z" id="Path" fill="url(#linearGradient-2)"></path>
                <path d="M727.28386,95.7399324 L725.26693,95.7399324 C724.85614,95.7399324 723.65536,94.198029 723.65536,93.7510531 L723.65536,91.9405024 C723.65536,90.5276232 721.85757,86.6515169 720.39518,86.6515169 C718.93279,86.6515169 717.13505,90.5276232 717.13505,91.9405024 L717.13505,93.7510531 C717.13505,94.388087 717.09805,95.7399324 716.47571,95.7399324 L714.45877,95.7399324 C712.99638,95.7399324 708.98467,96.6894493 708.98467,98.1023865 C708.98467,99.5153237 712.99638,100.464792 714.45877,100.464792 L716.86421,100.464792 C717.62594,100.464792 717.13505,101.531459 717.13505,101.916966 L717.13505,104.331932 C717.13505,105.74487 718.93285,109.620918 720.39518,109.620918 C721.85751,109.620918 723.65536,105.74487 723.65536,104.331932 L723.65536,101.916908 C723.65536,101.596937 724.50904,100.464734 724.87842,100.464734 L727.28386,100.464734 C728.74619,100.464734 732.75796,99.5152657 732.75796,98.1023285 C732.75796,96.6893913 728.74619,95.7399324 727.28386,95.7399324 Z" id="Path" fill="url(#linearGradient-3)"></path>
                <path d="M724.80521,96.6661643 L723.56788,96.6661643 C723.31588,96.6661643 722.57924,95.7202705 722.57924,95.4460483 L722.57924,94.3353333 C722.57924,93.4685797 721.47635,91.090715 720.57924,91.090715 C719.68213,91.090715 718.57924,93.4685797 718.57924,94.3353333 L718.57924,95.4460483 C718.57924,95.8368599 718.55655,96.6661643 718.17475,96.6661643 L716.93742,96.6661643 C716.0403,96.6661643 713.57924,97.2486667 713.57924,98.1154396 C713.57924,98.9822126 716.0403,99.564715 716.93742,99.564715 L718.41309,99.564715 C718.88038,99.564715 718.57924,100.219111 718.57924,100.455536 L718.57924,101.937043 C718.57924,102.803836 719.68213,105.181662 720.57924,105.181662 C721.47635,105.181662 722.57924,102.803884 722.57924,101.937043 L722.57924,100.455556 C722.57924,100.259256 723.10294,99.5647343 723.32954,99.5647343 L724.80521,99.5647343 C725.7023,99.5647343 728.16339,98.9822609 728.16339,98.1154589 C728.16339,97.248657 725.7023,96.6661643 724.80521,96.6661643 Z" id="Path" fill="#1976D2"></path>
                <ellipse id="Oval" fill="#64B5F6" cx="711.53757" cy="32.8577874" rx="6.95833" ry="6.72302415"></ellipse>
                <ellipse id="Oval" fill="#64B5F6" cx="650.05841" cy="58.3016522" rx="3.47917" ry="3.36151691"></ellipse>
                <ellipse id="Oval" fill="#82A9FF" cx="937.05841" cy="126.900686" rx="3.47917" ry="3.36151691"></ellipse>
                <ellipse id="Oval" fill="#82A9FF" cx="678.37132" cy="186.923816" rx="6.5" ry="6.28019324"></ellipse>
                <ellipse id="Oval" fill="url(#linearGradient-5)" cx="807.28757" cy="18.1234879" rx="6.0715" ry="5.86618357"></ellipse>
                <ellipse id="Oval" fill="url(#linearGradient-5)" cx="808.28757" cy="91.5534396" rx="6.0715" ry="5.86618357"></ellipse>
                <ellipse id="Oval" fill="#0D47A1" cx="807.28757" cy="18.1234879" rx="3.70833" ry="3.58292754"></ellipse>
                <ellipse id="Oval" fill="#64B5F6" cx="900.07924" cy="71.0622995" rx="7.5" ry="7.24637681"></ellipse>
                <path d="M778.39405,119.85457 L776.45255,119.85457 C776.05713,119.85457 775.07924,118.355053 775.07924,117.924773 L775.07924,116.181942 C775.07924,114.821913 773.4869,111.090792 772.07924,111.090792 C770.67158,111.090792 769.07924,114.821913 769.07924,116.181942 L769.07924,117.924773 C769.07924,118.53799 768.58924,119.85457 767.99016,119.85457 L766.04866,119.85457 C764.64098,119.85457 760.77932,120.909971 760.77932,122.270029 C760.77932,123.630087 764.64098,124.685488 766.04866,124.685488 L768.36414,124.685488 C769.09737,124.685488 769.07924,125.414203 769.07924,125.785208 L769.07924,128.109845 C769.07924,129.469932 770.67158,133.200995 772.07924,133.200995 C773.4869,133.200995 775.07924,129.469932 775.07924,128.109845 L775.07924,125.785208 C775.07924,125.477208 775.72301,124.685488 776.07858,124.685488 L778.39405,124.685488 C779.80168,124.685488 783.66339,123.630145 783.66339,122.270029 C783.66339,120.909913 779.80168,119.85457 778.39405,119.85457 Z" id="Path" fill="#2196F3"></path>
                <ellipse id="Oval" fill="#0D47A1" cx="861.57924" cy="187.326367" rx="3.5" ry="3.38164251"></ellipse>
                <ellipse id="Oval" fill="#0D47A1" cx="808.28757" cy="91.5534396" rx="3.70833" ry="3.58292754"></ellipse>
                <ellipse id="Oval" fill="url(#linearGradient-6)" cx="900.53757" cy="71.5051304" rx="9.29903" ry="8.98457005"></ellipse>
                <ellipse id="Oval" fill="url(#linearGradient-6)" cx="711.53757" cy="32.8577874" rx="9.29903" ry="8.98457005"></ellipse>
                <ellipse id="Oval" fill="url(#linearGradient-6)" cx="678.53757" cy="186.480976" rx="9.29903" ry="8.98457005"></ellipse>
                <ellipse id="Oval" fill="url(#linearGradient-7)" cx="937.05841" cy="126.900686" rx="5.02583" ry="4.8558744"></ellipse>
                <ellipse id="Oval" fill="url(#linearGradient-7)" cx="650.05841" cy="58.3016522" rx="5.02583" ry="4.8558744"></ellipse>
                <ellipse id="Oval" fill="url(#linearGradient-7)" cx="715.05841" cy="181.006966" rx="5.02583" ry="4.8558744"></ellipse>
                <ellipse id="Oval" fill="url(#linearGradient-7)" cx="829.05841" cy="164.581845" rx="5.02583" ry="4.8558744"></ellipse>
                <ellipse id="Oval" fill="#64B5F6" cx="619.37132" cy="103.001111" rx="6.5" ry="6.28019324"></ellipse>
            </g>
        </g>
    </g>
</svg>