<?xml version="1.0" encoding="UTF-8"?>
<svg width="415px" height="250px" viewBox="0 0 415 250" version="1.1" xmlns="http://www.w3.org/2000/svg" xmlns:xlink="http://www.w3.org/1999/xlink">
    <title>undraw_Add_friends_wa2a</title>
    <g id="UI" stroke="none" stroke-width="1" fill="none" fill-rule="evenodd">
        <g id="Home" transform="translate(-961.000000, -772.000000)" fill-rule="nonzero">
            <g id="Employee-Onboarding" transform="translate(464.000000, 772.000000)">
                <g id="undraw_Add_friends_wa2a" transform="translate(497.000000, 0.000000)">
                    <rect id="Rectangle" fill="#E6E8EC" x="153.078589" y="42.5585948" width="219.877376" height="158.482924"></rect>
                    <path d="M414.909578,201.547857 L152.573126,201.547857 L152.573126,3.06444631 L414.909578,3.06444631 L414.909578,201.547857 Z M153.584053,200.535185 L413.89865,200.535185 L413.89865,4.07713087 L153.584053,4.07713087 L153.584053,200.535185 Z" id="Shape" fill="#3F3D56"></path>
                    <ellipse id="Oval" fill="#3F3D56" cx="165.209757" cy="14.2038213" rx="5.05465159" ry="5.06335151"></ellipse>
                    <ellipse id="Oval" fill="#3F3D56" cx="179.362784" cy="14.2038213" rx="5.05465159" ry="5.06335151"></ellipse>
                    <ellipse id="Oval" fill="#3F3D56" cx="193.515811" cy="14.2038213" rx="5.05465159" ry="5.06335151"></ellipse>
                    <rect id="Rectangle" fill="#3F3D56" x="209.083265" y="67.3251049" width="107.868028" height="1.21408557"></rect>
                    <rect id="Rectangle" fill="#3F3D56" x="209.083265" y="75.8237081" width="107.868028" height="1.21408557"></rect>
                    <rect id="Rectangle" fill="#3F3D56" x="209.083265" y="84.3223154" width="107.868028" height="1.21408557"></rect>
                    <rect id="Rectangle" fill="#3F3D56" x="209.083265" y="101.755902" width="107.868028" height="1.21408557"></rect>
                    <rect id="Rectangle" fill="#3F3D56" x="209.083265" y="110.254505" width="107.868028" height="1.21408557"></rect>
                    <rect id="Rectangle" fill="#3F3D56" x="209.083265" y="118.753108" width="107.868028" height="1.21408557"></rect>
                    <path d="M262.860308,193.446493 C248.064788,193.446493 236.070649,181.431711 236.070649,166.610726 C236.070649,151.78974 248.064788,139.774958 262.860308,139.774958 C277.655827,139.774958 289.649966,151.78974 289.649966,166.610726 C289.633355,181.424813 277.648941,193.429854 262.860308,193.446493 Z M262.860308,140.78763 C248.62311,140.78763 237.081581,152.349024 237.081581,166.610726 C237.081581,180.872428 248.62311,192.433821 262.860308,192.433821 C277.097505,192.433821 288.639034,180.872428 288.639034,166.610726 C288.6228,152.355765 277.090775,140.803892 262.860308,140.78763 L262.860308,140.78763 Z" id="Shape" fill="#0A876E"></path>
                    <polygon id="Path" fill="#0A876E" points="276.002302 165.598154 263.871336 165.598154 263.871336 153.445889 261.849229 153.445889 261.849229 165.598154 249.718263 165.598154 249.718263 167.623322 261.849229 167.623322 261.849229 179.775587 263.871336 179.775587 263.871336 167.623322 276.002302 167.623322"></polygon>
                    <path d="M51.227345,181.547613 C51.227345,181.547613 40.6125737,193.193322 39.096182,220.02909 C37.5797903,246.864857 37.074318,249.902869 37.074318,249.902869 L74.9842112,249.902869 L82.0607142,231.674803 L90.1481618,249.902869 L126.036199,249.902869 C126.036199,249.902869 130.079923,194.205994 126.036199,192.686988 C121.992476,191.167982 51.227345,181.547613 51.227345,181.547613 Z" id="Path" fill="#2F2E41"></path>
                    <ellipse id="Oval" fill="#FFB8B8" cx="102.026601" cy="26.3558683" rx="18.1967466" ry="18.2280663"></ellipse>
                    <path d="M85.5989825,27.6217072 L82.0607226,60.0271602 L106.828521,63.065172 C106.828521,63.065172 107.839453,34.7103985 108.344917,33.6977223 C108.850381,32.6850461 85.5989825,27.6217072 85.5989825,27.6217072 Z" id="Path" fill="#FFB8B8"></path>
                    <path d="M155.858649,96.4833138 L166.473416,117.243058 C166.473416,117.243058 180.626443,138.002802 184.164699,155.218201 C187.702955,172.433599 191.241215,180.534962 191.241215,180.534962 C191.241215,180.534962 209.437953,206.864375 199.328675,211.421393 C189.219397,215.97841 180.62646,182.053943 180.62646,182.053943 L152.825857,131.420428 L136.650971,105.090994 L155.858649,96.4833138 Z" id="Path" fill="#FFB8B8"></path>
                    <path d="M55.2710687,101.546653 L51.7328089,116.736711 L18.3721075,160.787886 C18.3721075,160.787886 -8.41755055,181.041296 2.70268463,185.598314 C13.8229198,190.155331 27.4704787,167.370243 27.4704787,167.370243 L68.9186276,130.914102 L66.8967678,101.546653 L55.2710687,101.546653 Z" id="Path" fill="#FFB8B8"></path>
                    <path d="M81.0497948,53.4448029 C81.0497948,53.4448029 96.0605317,59.7488381 107.257376,52.0398029 C107.257376,52.0398029 134.629107,56.4828146 136.145503,58.0018205 C137.661899,59.5208263 134.629107,105.090994 134.629107,105.090994 L128.563527,130.914102 C128.563527,130.914102 137.156435,170.40823 124.519804,180.534958 L127.047131,194.206007 C127.047131,194.206007 70.9404874,198.25669 48.7000171,184.585621 L52.7437367,170.914572 L63.3585079,127.876078 L56.7874646,68.1285235 C56.7874646,68.1285235 61.8421162,54.4574748 81.0497948,53.4448029 Z" id="Path" fill="#D0CDE1"></path>
                    <path d="M123.25614,60.2803272 L136.398239,58.2549874 C136.398239,58.2549874 142.969286,59.2676594 149.034866,71.9260403 C155.100445,84.5844211 161.671497,101.29349 161.671497,101.29349 L138.925562,111.420185 L120.223348,82.0527349 L123.25614,60.2803272 Z" id="Path" fill="#D0CDE1"></path>
                    <path d="M59.8202522,65.5968498 L56.7874646,68.1285235 C56.7874646,68.1285235 52.7437408,82.8122483 52.7437408,92.9389513 L52.7437408,106.609992 L70.9404874,108.635336 L59.8202522,65.5968498 Z" id="Path" fill="#D0CDE1"></path>
                    <path d="M83.8350094,31.3026971 C83.8350094,31.3026971 81.3615234,28.6270554 81.6118769,25.2774664 C81.7768362,23.3720608 81.6551603,21.4526424 81.2509209,19.5834438 C81.2509209,19.5834438 82.0250834,14.1010612 83.1681831,10.9232089 C84.3112827,7.74535654 83.3476477,6.63947148 88.2614134,4.90457215 C93.1751791,3.16967282 90.0469978,-3.1041401 104.534261,1.8964849 C105.660969,3.0361642 107.361603,3.38472884 108.844631,2.77994547 C111.519281,1.79872064 113.131113,5.47952181 113.131113,5.47952181 C113.131113,5.47952181 114.799428,4.10839346 115.735573,5.53390101 C116.671717,6.95940856 121.199323,3.71037332 122.859545,14.0809396 C124.519766,24.4515059 118.820226,33.6996015 118.820226,33.6996015 C118.820226,33.6996015 118.020508,17.1042282 108.611894,16.8033767 C99.2032811,16.5025252 88.5633769,12.9325126 87.2437104,19.9208263 C85.9240438,26.9091401 83.8350094,31.3026971 83.8350094,31.3026971 Z" id="Path" fill="#2F2E41"></path>
                    <rect id="Rectangle" fill="#3F3D56" x="3.96634857" y="147.369987" width="190.054926" height="68.3552559"></rect>
                    <path d="M71.6104543,202.696783 C71.5895674,202.700738 71.5687433,202.704786 71.5478272,202.708712 C71.0489626,202.799971 70.546275,202.880105 70.0357192,202.935222 C69.8638464,202.955466 69.6869445,202.970667 69.5150717,202.985843 C69.338174,203.001049 69.1663012,203.016221 68.9893993,203.026359 C68.7012836,203.046602 68.4081053,203.056737 68.114927,203.061804 C67.988559,203.066875 67.8571618,203.066875 67.7307979,203.066875 L67.6549637,203.066875 C67.4982745,203.066875 67.3415811,203.066875 67.1848877,203.061804 C67.0484028,203.056737 66.9119472,203.051669 66.7805208,203.046602 C66.7046865,203.046602 66.6288565,203.041569 66.5581141,203.036493 C57.7813996,202.562197 50.2040117,196.719241 47.5008575,188.341362 C44.7977034,179.963483 47.527823,170.783313 54.3671538,165.253081 C61.2064846,159.722849 70.7405827,158.986264 78.3455692,163.400558 C71.7929618,167.203385 67.7588487,174.214864 67.7588487,181.800778 C67.7588487,189.386692 71.7929618,196.398171 78.3455692,200.200998 C76.2591073,201.411725 73.9811893,202.255837 71.6104543,202.696783 Z" id="Path" fill="#0A876E"></path>
                    <path d="M103.542997,198.444018 C104.353809,199.093235 105.212146,199.680543 106.110767,200.200986 C102.88714,202.07826 99.224784,203.066862 95.496,203.066862 L95.2230428,203.066862 C86.3242106,202.964446 78.4335962,197.31322 75.4583207,188.911448 C72.4830452,180.509676 75.0546529,171.140754 81.8997852,165.443801 C88.7449174,159.746849 98.410598,158.931126 106.110767,163.400545 C100.021862,166.913101 96.0671979,173.220779 95.5528436,180.240396 C95.0384892,187.260014 98.0313473,194.078517 103.542993,198.444018 L103.542997,198.444018 Z" id="Path" fill="#0A876E"></path>
                    <path d="M144.485682,181.80078 C144.485682,190.402108 139.313273,198.156494 131.380337,201.448081 C123.4474,204.739668 114.316195,202.920233 108.244588,196.838177 C102.17298,190.75612 100.35667,181.609199 103.642599,173.662608 C106.928529,165.716017 114.669591,160.534702 123.25614,160.534702 C128.886731,160.534156 134.286864,162.774507 138.268294,166.762789 C142.249724,170.75107 144.486226,176.160498 144.485682,181.80078 L144.485682,181.80078 Z" id="Path" fill="#0A876E"></path>
                    <path d="M131.849056,198.509845 C131.849884,199.472422 131.753351,200.432607 131.560931,201.375688 C126.253209,203.630587 120.259075,203.630587 114.951352,201.375688 C114.75893,200.432607 114.662397,199.472422 114.663227,198.509845 C114.663227,193.507248 117.205735,189.279333 120.708616,187.866669 C117.825096,186.651817 116.196267,183.569137 116.814865,180.497457 C117.433463,177.425777 120.127974,175.216764 123.25615,175.216764 C126.384326,175.216764 129.078837,177.425777 129.697435,180.497457 C130.316033,183.569137 128.687204,186.651817 125.803684,187.866669 C129.306544,189.279333 131.849056,193.507248 131.849056,198.509845 Z" id="Path" fill="#FFFFFF"></path>
                    <path d="M103.543005,198.444018 L103.543005,198.509845 C103.472107,199.703208 103.303046,200.888678 103.037533,202.05419 C100.565798,203.107378 98.0687992,203.031414 95.2230261,203.066878 L94.9500898,203.066878 C92.0962617,203.070306 89.2712693,202.495029 86.6452982,201.375688 C86.6248194,201.288935 86.6096231,201.201016 86.5997935,201.112416 C86.4358743,200.254682 86.354629,199.383151 86.3571202,198.509845 C86.3571202,193.507248 88.8996856,189.279333 92.4025618,187.866669 C89.5191021,186.652146 87.8902438,183.569648 88.5088844,180.498163 C89.127525,177.426679 91.8221049,175.217983 94.9500982,175.218397 C95.4644309,175.216963 95.977032,175.27817 96.4766109,175.400696 C93.8321267,183.806491 96.643706,192.974975 103.543005,198.444018 L103.543005,198.444018 Z" id="Path" fill="#FFFFFF"></path>
                    <path d="M76.2377625,198.803494 C76.2265587,199.667773 76.1334748,200.529035 75.9597553,201.375688 C74.0710623,202.180669 72.0754694,202.706015 70.0357192,202.93521 C69.8638464,202.955453 69.6869445,202.970654 69.5150717,202.985831 C69.338174,203.001036 69.1663012,203.016208 68.9893993,203.026346 C68.7012836,203.04659 68.4081053,203.056724 68.114927,203.061791 C68.0542722,203.066862 67.988559,203.066862 67.9279041,203.066862 L67.6549637,203.066862 C67.4982745,203.066862 67.3415811,203.066862 67.1848877,203.061791 C67.0484028,203.056724 66.9119472,203.051657 66.7805208,203.04659 C66.7046865,203.04659 66.6288565,203.041556 66.5581141,203.036481 C64.0764274,202.913511 61.6360946,202.35123 59.3501763,201.375688 C59.3460274,201.364358 59.344304,201.35228 59.3451178,201.340239 C59.3263247,201.265341 59.3128093,201.189212 59.3046715,201.112416 C59.1407502,200.254682 59.059505,199.383151 59.0619981,198.509845 C59.0619981,193.507248 61.6045595,189.279333 65.1074398,187.866669 C62.2239809,186.652146 60.5951226,183.569649 61.213762,180.498165 C61.8324015,177.426681 64.5269795,175.217985 67.6549721,175.218417 C68.019149,175.217949 68.3827091,175.248437 68.7417383,175.30956 C65.9815721,183.940849 68.9918917,193.375751 76.2377625,198.803494 L76.2377625,198.803494 Z" id="Path" fill="#FFFFFF"></path>
                </g>
            </g>
        </g>
    </g>
</svg>