<?xml version="1.0" encoding="UTF-8"?>
<svg width="48px" height="101px" viewBox="0 0 48 101" version="1.1" xmlns="http://www.w3.org/2000/svg" xmlns:xlink="http://www.w3.org/1999/xlink">
    <title>Plant</title>
    <g id="UI" stroke="none" stroke-width="1" fill="none" fill-rule="evenodd">
        <g id="Home" transform="translate(-480.000000, -179.000000)">
            <g id="Welcome" transform="translate(464.000000, 32.000000)">
                <g id="Plant" transform="translate(16.000000, 147.000000)">
                    <path d="M6.55724239,61.966605 C6.55724239,61.966605 -17.6580594,76.5371571 26.9801567,98.9696725 C26.9801567,98.9696725 36.822525,80.7610835 25.9405565,65.9144577 C21.5723154,59.9247221 13.4028709,58.1391996 6.92325546,61.758016 L6.55724239,61.966605 Z" id="Path" fill="#0A876E" fill-rule="nonzero"></path>
                    <path d="M6.83713474,61.6598565 C6.83713474,61.6598565 27.5583958,77.4727399 26.9801567,98.9696725" id="Path" stroke="#535461"></path>
                    <path d="M28.1058775,99.7978933 C28.1058775,99.7978933 20.5180267,74.1046418 29.5299452,55.1935988 C33.3131055,47.258016 34.5680075,38.3469731 32.8209871,29.7334761 C31.9856117,25.6439333 30.7758792,21.6394282 29.2069925,17.770286" id="Path" stroke="#535461" stroke-width="2"></path>
                    <path d="M34.8017637,5.83470314 C34.8017637,8.98500989 29.0839629,18.1046418 29.0839629,18.1046418 C29.0839629,18.1046418 23.366162,8.97273995 23.366162,5.83470314 C23.3180535,3.76643463 24.3969228,1.83440797 26.1853272,0.786174843 C27.9737316,-0.262058281 30.1911185,-0.262058281 31.9795228,0.786174843 C33.7679272,1.83440797 34.8467965,3.76643463 34.798688,5.83470314 L34.8017637,5.83470314 Z" id="Path" fill="#000000" fill-rule="nonzero" opacity="0.25"></path>
                    <path d="M44.2627403,23.2764209 C42.5464773,25.9205927 32.7717753,30.4850099 32.7717753,30.4850099 C32.7717753,30.4850099 32.9501682,19.7212062 34.6664312,17.0770344 C36.4171133,14.5232662 39.8901858,13.8273819 42.4939989,15.5086592 C45.097812,17.1899365 45.8825982,20.6351122 44.2627403,23.2733534 L44.2627403,23.2764209 Z" id="Path" fill="#000000" fill-rule="nonzero" opacity="0.25"></path>
                    <path d="M43.8475154,53.0831694 C41.0270617,54.5003473 30.2804258,53.5218197 30.2804258,53.5218197 C30.2804258,53.5218197 35.8813485,44.3193657 38.7018022,42.9021878 C41.5090686,41.5593772 44.877602,42.7034239 46.2796889,45.4758468 C47.6817757,48.2482697 46.6019896,51.629888 43.8505911,53.0831694 L43.8475154,53.0831694 Z" id="Path" fill="#000000" fill-rule="nonzero" opacity="0.25"></path>
                    <path d="M38.44344,75.5647645 C35.9059544,77.4359301 25.1439398,78.2825559 25.1439398,78.2825559 C25.1439398,78.2825559 29.1054931,68.270286 31.6429786,66.3960528 C33.2842121,65.1649213 35.4614015,64.9061615 37.3467699,65.7181552 C39.2321383,66.5301489 40.5360602,68.2881595 40.7627786,70.3237837 C40.9894971,72.359408 40.1041843,74.3599384 38.44344,75.5647645 L38.44344,75.5647645 Z" id="Path" fill="#000000" fill-rule="nonzero" opacity="0.25"></path>
                    <path d="M20.7671617,31.0954393 C23.0309064,33.2886909 33.5837706,35.561697 33.5837706,35.561697 C33.5837706,35.561697 31.000149,25.1107768 28.7364043,22.9144577 C27.2828047,21.437243 25.1407558,20.861507 23.1397051,21.4101872 C21.1386543,21.9588674 19.5928,23.5458118 19.1007301,25.5565214 C18.6086602,27.5672311 19.247638,29.685991 20.7702374,31.0923718 L20.7671617,31.0954393 Z" id="Path" fill="#000000" fill-rule="nonzero" opacity="0.25"></path>
                    <path d="M14.7817714,57.466605 C17.6022251,58.8837829 28.348861,57.9052553 28.348861,57.9052553 C28.348861,57.9052553 22.7479383,48.7028013 19.9274846,47.2856234 C17.1202181,45.9428128 13.7516847,47.0868595 12.3495979,49.8592824 C10.9475111,52.6317052 12.0272972,56.0133235 14.7786957,57.466605 L14.7817714,57.466605 Z" id="Path" fill="#000000" fill-rule="nonzero" opacity="0.25"></path>
                    <path d="M12.490345,83.8960528 C15.0278306,85.7672185 25.7898452,86.6138442 25.7898452,86.6138442 C25.7898452,86.6138442 21.828292,76.5985068 19.2877307,74.7273412 C16.7484582,72.8851661 13.1947352,73.4299114 11.3273782,75.9475727 C9.46002116,78.465234 9.97782884,82.0136568 12.4872693,83.8960528 L12.490345,83.8960528 Z" id="Path" fill="#000000" fill-rule="nonzero" opacity="0.25"></path>
                </g>
            </g>
        </g>
    </g>
</svg>