<?xml version="1.0" encoding="UTF-8"?>
<svg width="833px" height="1026px" viewBox="0 0 833 1026" version="1.1" xmlns="http://www.w3.org/2000/svg" xmlns:xlink="http://www.w3.org/1999/xlink">
    <title>Space Illustration</title>
    <defs>
        <rect id="path-1" x="0.250891506" y="0.89305412" width="831" height="1024"></rect>
        <linearGradient x1="-9.86176051e-07%" y1="49.9999994%" x2="99.9999957%" y2="49.9999994%" id="linearGradient-3">
            <stop stop-color="#FFFFFF" offset="0%"></stop>
            <stop stop-color="#FFFFFF" stop-opacity="0.3" offset="100%"></stop>
        </linearGradient>
        <linearGradient x1="-5.82073067e-06%" y1="50.0000049%" x2="100.000006%" y2="50.0000049%" id="linearGradient-4">
            <stop stop-color="#FFFFFF" offset="0%"></stop>
            <stop stop-color="#FFFFFF" stop-opacity="0.3" offset="100%"></stop>
        </linearGradient>
    </defs>
    <g id="UI" stroke="none" stroke-width="1" fill="none" fill-rule="evenodd">
        <g id="Desktop-HD" transform="translate(1.000000, 1.000000)">
            <g id="Space-Illustration" transform="translate(-0.250892, -0.893054)">
                <mask id="mask-2" fill="white">
                    <use xlink:href="#path-1"></use>
                </mask>
                <g id="Mask"></g>
                <g mask="url(#mask-2)" fill-rule="nonzero">
                    <g transform="translate(-53.000000, -382.000000)">
                        <path d="M798.250892,1013.89305 C689.182821,1179.07837 300.776319,1632.89305 102.954748,1632.89305 C-94.8668227,1632.89305 53.2508915,1075.38372 53.2508915,877.385417 C53.2508915,679.387118 -16.1873508,135.027044 163.250892,51.6743376 C746.076596,-219.060046 1042.29637,644.28229 798.250892,1013.89305 Z" id="Path" fill="#3F3D56"></path>
                        <circle id="Oval" fill="#E6E6E6" cx="731.250892" cy="501.893054" r="67"></circle>
                        <circle id="Oval" fill="#CBCBCB" cx="724.750892" cy="456.393054" r="7.5"></circle>
                        <circle id="Oval" fill="#CBCBCB" cx="737.750892" cy="533.393054" r="7.5"></circle>
                        <circle id="Oval" fill="#CBCBCB" cx="767.750892" cy="490.393054" r="5.5"></circle>
                        <circle id="Oval" fill="#CBCBCB" cx="704.750892" cy="507.393054" r="17.5"></circle>
                        <circle id="Oval" fill="#0A876E" cx="500.250892" cy="605.893054" r="11"></circle>
                        <circle id="Oval" fill="#0A876E" cx="110.250892" cy="725.893054" r="11"></circle>
                        <circle id="Oval" fill="#0A876E" cx="170.250892" cy="1035.89305" r="11"></circle>
                        <circle id="Oval" fill="#0A876E" cx="190.250892" cy="525.893054" r="11"></circle>
                        <circle id="Oval" fill="#0A876E" cx="350.250892" cy="425.893054" r="11"></circle>
                        <circle id="Oval" fill="#0A876E" cx="795.250892" cy="633.893054" r="11"></circle>
                        <circle id="Oval" fill="#0A876E" cx="695.250892" cy="943.893054" r="11"></circle>
                        <circle id="Oval" fill="#E6E6E6" cx="664.750892" cy="655.393054" r="6.5"></circle>
                        <circle id="Oval" fill="#E6E6E6" cx="304.750892" cy="515.393054" r="6.5"></circle>
                        <circle id="Oval" fill="#E6E6E6" cx="754.750892" cy="775.393054" r="6.5"></circle>
                        <circle id="Oval" fill="#E6E6E6" cx="156.750892" cy="863.393054" r="6.5"></circle>
                        <circle id="Oval" fill="#E6E6E6" cx="546.750892" cy="1040.39305" r="6.5"></circle>
                        <polygon id="Path" fill="#0A876E" points="650.062687 850.915424 646.759026 854.197732 643.476719 850.893054 641.274278 853.081259 644.555569 856.385936 641.250892 859.667227 643.439096 861.870684 646.743774 858.588377 650.026081 861.893054 652.228521 859.704849 648.946214 856.400172 652.250892 853.118881"></polygon>
                        <polygon id="Path" fill="#0A876E" points="220.062687 650.915424 216.759026 654.197732 213.476719 650.893054 211.274278 653.081259 214.555569 656.385936 211.250892 659.667227 213.439096 661.870684 216.743774 658.588377 220.026081 661.893054 222.228521 659.704849 218.946214 656.400172 222.250892 653.118881"></polygon>
                        <polygon id="Path" fill="#0A876E" points="560.062687 440.915424 556.759026 444.197732 553.476719 440.893054 551.274278 443.081259 554.555569 446.385936 551.250892 449.667227 553.439096 451.870684 556.743774 448.588377 560.026081 451.893054 562.228521 449.704849 558.946214 446.400172 562.250892 443.118881"></polygon>
                        <polygon id="Path" fill="#0A876E" points="220.062687 870.915424 216.759026 874.197732 213.476719 870.893054 211.274278 873.081259 214.555569 876.385936 211.250892 879.667227 213.439096 881.870684 216.743774 878.588377 220.026081 881.893054 222.228521 879.704849 218.946214 876.400172 222.250892 873.118881"></polygon>
                        <polygon id="Path" fill="#E6E6E6" points="214.062687 958.916441 210.758009 962.197732 207.476719 958.893054 205.273262 961.081259 208.555569 964.385936 205.250892 967.667227 207.439096 969.870684 210.742757 966.588377 214.025064 969.893054 216.228521 967.704849 212.946214 964.401189 216.250892 961.118881"></polygon>
                        <polygon id="Path" fill="#E6E6E6" points="240.062687 767.915426 236.758009 771.19702 233.476719 767.893054 231.273262 770.080444 234.555569 773.385427 231.250892 776.668038 233.439096 778.870682 236.742757 775.589088 240.025064 778.893054 242.228521 776.705664 238.946214 773.400681 242.250892 770.11807"></polygon>
                        <polygon id="Path" fill="#E6E6E6" points="815.062687 563.915426 811.758009 567.19702 808.476719 563.893054 806.273262 566.080444 809.555569 569.385427 806.250892 572.668038 808.439096 574.870682 811.743774 571.589088 815.025064 574.893054 817.228521 572.705664 813.946214 569.400681 817.250892 566.11807"></polygon>
                        <polygon id="Path" fill="#E6E6E6" points="555.063501 654.915424 551.758518 658.197732 548.475908 654.893054 546.273264 657.081259 549.554857 660.38492 546.250892 663.667227 548.438282 665.870684 551.743265 662.588377 555.025875 665.893054 557.228519 663.704849 553.946926 660.400172 557.250892 657.118881"></polygon>
                        <polygon id="Path" fill="#E6E6E6" points="365.063501 614.915424 361.758518 618.197732 358.475908 614.893054 356.273264 617.081259 359.554857 620.38492 356.250892 623.667227 358.438282 625.870684 361.743265 622.588377 365.025875 625.893054 367.228519 623.704849 363.946926 620.400172 367.250892 617.118881"></polygon>
                        <path d="M578.200019,818.500009 L611.622577,779.386226 L645.045125,740.272442 L663.912694,718.192085 C664.956621,716.970392 663.345646,715.064456 662.301759,716.286098 L628.879211,755.399881 L595.456663,794.513665 L576.589094,816.594032 C575.545157,817.815725 577.156132,819.721651 578.200019,818.500009 L578.200019,818.500009 Z" id="Path" fill="url(#linearGradient-3)" opacity="0.8"></path>
                        <path d="M475.867786,971.568693 L503.59331,939.290328 L531.318834,907.011963 L546.970341,888.790309 C547.836326,887.782115 546.499957,886.209255 545.633997,887.217415 L517.908473,919.49578 L490.182949,951.774145 L474.531443,969.9958 C473.665457,971.003993 475.001826,972.576853 475.867786,971.568693 L475.867786,971.568693 Z" id="Path" fill="url(#linearGradient-4)" opacity="0.8"></path>
                        <path d="M358.250892,824.893054 L427.250892,824.893054 L427.250892,853.384342 C427.250892,863.606422 419.354006,871.893054 409.612703,871.893054 L375.889113,871.893054 C366.147811,871.893054 358.250892,863.606422 358.250892,853.384342 L358.250892,824.893054 L358.250892,824.893054 Z" id="Path" fill="#2F2E41"></path>
                        <path d="M450.013033,1200.3563 C434.309211,1216.92598 418.581251,1217.03674 402.829365,1200.89041 L390.730435,1089.48127 L382.261527,1201.12324 C366.520277,1214.39102 351.850708,1216.17751 338.706967,1201.61625 C326.16874,1105.15703 319.353668,1015.54484 330.238026,947.107603 L307.250892,850.091929 L359.274403,824.893054 C369.750761,851.880705 353.227815,865.684191 390.591279,865.222176 C427.625479,864.764224 424.859602,850.256191 423.396399,824.893054 L471.25319,844.061648 C479.713186,847.450212 484.180645,857.109296 481.451136,866.110607 L457.272174,945.847653 C466.580442,986.099537 457.02313,1098.06947 450.013033,1200.3563 Z" id="Path" fill="#E6E6E6"></path>
                        <path d="M377.328594,1295.86685 C377.328594,1295.86685 338.420311,1299.36983 333.208193,1297.16398 L333.208193,1297.16398 C332.879208,1297.02475 332.559003,1296.87332 332.247577,1296.70969 C324.501712,1292.6448 324.265694,1281.26105 331.505243,1276.30742 L346.858336,1265.80214 L333.4514,1191.89305 L385.250892,1192.5194 L377.328594,1295.86685 Z" id="Path" fill="#2F2E41"></path>
                        <path d="M406.043067,1295.86684 C406.043067,1295.86684 444.288712,1299.36982 449.412076,1297.16399 L449.412076,1297.16399 C449.735458,1297.02475 450.050211,1296.87332 450.356333,1296.7097 C457.970282,1292.64481 458.20228,1281.26105 451.086024,1276.30742 L435.994402,1265.80214 L454.564267,1191.89305 L401.250892,1191.89305 L406.043067,1295.86684 Z" id="Path" fill="#2F2E41"></path>
                        <path d="M315.836255,1032.24633 L323.553006,1064.06751 C325.498313,1072.08934 322.236432,1080.49324 315.46034,1084.91744 L315.46034,1084.91744 C310.033275,1088.46083 303.216758,1088.8664 297.430299,1085.9902 C291.64384,1083.11399 287.706629,1077.3632 287.01617,1070.77904 L285.34845,1054.87613 L279.250892,903.732413 C279.250892,878.024724 294.267739,854.846665 317.30293,845.000232 L329.250892,839.893054 L315.836255,1032.24633 Z" id="Path" fill="#E6E6E6"></path>
                        <path d="M508.250892,902.733502 L508.214998,903.626138 L503.386731,1025.62453 L502.454577,1049.19698 L502.275285,1053.8738 L500.637969,1069.77729 C499.90633,1076.90144 495.459654,1083.00203 489.10917,1085.59414 C482.758686,1088.18625 475.564164,1086.83732 470.456091,1082.0968 C465.348018,1077.35627 463.178831,1070.01525 464.832087,1063.0639 L472.397232,1031.24424 L472.229901,1028.88075 L471.226037,1014.0961 L459.250892,838.893054 L470.963074,843.997268 C493.522039,853.86548 508.229456,877.032785 508.250892,902.733502 Z" id="Path" fill="#E6E6E6"></path>
                        <path d="M396.294847,1040.89305 C352.590951,1040.89305 325.632156,1025.26829 325.250892,1025.04177 L326.453439,1022.89305 C326.990383,1023.21282 381.05834,1054.47815 460.494238,1027.37703 L461.250892,1029.7316 C440.319056,1037.01677 418.387189,1040.78534 396.294847,1040.89305 L396.294847,1040.89305 Z" id="Path" fill="#2F2E41"></path>
                        <path d="M352.026122,1156.89305 C342.297355,1134.29262 342.248031,1036.0637 342.250892,1031.89305 L344.684936,1031.89551 C344.684341,1032.91149 344.730088,1133.75641 354.250892,1155.87218 L352.026122,1156.89305 Z" id="Path" fill="#2F2E41"></path>
                        <path d="M357.352971,1157.89305 C348.810239,1157.89305 343.134215,1155.90118 339.43396,1153.61688 C332.696549,1149.4574 331.306533,1143.78959 331.250892,1143.55103 L333.575181,1142.89947 L332.413036,1143.22525 L333.573423,1142.89305 C333.622066,1143.09185 334.835153,1147.81055 340.718542,1151.39414 C347.196464,1155.33813 360.236083,1158.2817 385.557359,1149.89862 L386.250892,1152.41253 C374.132676,1156.42447 364.686694,1157.89305 357.352971,1157.89305 Z" id="Path" fill="#2F2E41"></path>
                        <polygon id="Rectangle" fill="#2F2E41" points="333.250892 837.015431 335.523986 836.893054 344.250892 1032.77068 341.977797 1032.89305"></polygon>
                        <path d="M434.290308,1156.89305 L432.250892,1155.87218 C440.978309,1133.75641 441.020788,1032.91149 441.019698,1031.89551 L443.250892,1031.89305 C443.253028,1036.0637 443.208369,1134.29262 434.290308,1156.89305 Z" id="Path" fill="#2F2E41"></path>
                        <path d="M429.149115,1157.89305 C421.815315,1157.89305 412.371577,1156.42576 400.250892,1152.4125 L400.944442,1149.89861 C426.265972,1158.28038 439.302798,1155.33939 445.783728,1151.39412 C451.667167,1147.81054 452.879703,1143.09185 452.927739,1142.89305 L455.250892,1143.55102 C455.194653,1143.78958 453.805219,1149.45739 447.067726,1153.61685 C443.368019,1155.90123 437.689591,1157.89305 429.149115,1157.89305 Z" id="Path" fill="#2F2E41"></path>
                        <polygon id="Rectangle" fill="#2F2E41" points="441.250892 1032.77093 450.76714 836.893054 453.250892 837.015182 443.734643 1032.89305"></polygon>
                        <polygon id="Path" fill="#0A876E" points="427.250892 866.893054 409.419183 893.893054 371.072229 893.893054 358.250892 866.893054 363.883004 866.893054 373.469742 888.984374 405.82457 888.984374 421.403434 866.893054"></polygon>
                        <polygon id="Path" fill="#000000" points="469.968892 879.893054 470.532892 880.41287 469.968892 880.893054"></polygon>
                        <path d="M510.250892,902.964222 L510.214737,903.869302 L487.381654,910.893054 L473.250892,880.962453 L487.706667,852.893054 C501.973051,865.123625 510.258359,883.525462 510.250892,902.964222 L510.250892,902.964222 Z" id="Path" fill="#0A876E"></path>
                        <path d="M277.250892,902.964222 L277.288023,903.869302 L300.738217,910.893054 L315.250892,880.962453 L300.404419,852.893054 C285.752457,865.123625 277.243222,883.525462 277.250892,902.964222 Z" id="Path" fill="#0A876E"></path>
                        <ellipse id="Oval" fill="#E6E6E6" cx="392.250892" cy="778.893054" rx="64" ry="67"></ellipse>
                        <ellipse id="Oval" fill="#2F2E41" cx="392.750892" cy="786.893054" rx="47.5" ry="49"></ellipse>
                        <polygon id="Path" fill="#0A876E" points="504.250892 1025.38875 503.236048 1048.89305 471.175753 1031.6189 470.344066 1028.63494 469.250892 1013.89305"></polygon>
                        <polygon id="Path" fill="#0A876E" points="283.250892 1025.38875 284.265734 1048.89305 316.325322 1031.6189 317.158237 1028.63494 318.250892 1013.89305"></polygon>
                        <polygon id="Path" fill="#2F2E41" points="408.924661 895.893054 368.679036 895.893054 346.396292 848.216219 345.250892 831.067695 347.672564 830.893054 348.785527 847.551422 370.199153 893.365425 407.634967 893.365425 435.095504 851.114086 440.941074 832.458997 443.250892 833.241386 437.201744 852.38314"></polygon>
                    </g>
                </g>
            </g>
        </g>
    </g>
</svg>